<svg xmlns="http://www.w3.org/2000/svg" xmlns:xlink="http://www.w3.org/1999/xlink" width="500" zoomAndPan="magnify" viewBox="0 0 375 374.999991" height="500" preserveAspectRatio="xMidYMid meet" version="1.2"><defs><radialGradient gradientTransform="matrix(1,0,0,1,0.0000045,0)" id="6d70ef0fea" gradientUnits="userSpaceOnUse" r="265.164751" cx="187.499996" fx="187.499996" cy="187.499996" fy="187.499996"><stop style="stop-color:#be9eff;stop-opacity:1;" offset="0"/><stop style="stop-color:#bd9dfe;stop-opacity:1;" offset="0.015625"/><stop style="stop-color:#bd9cfe;stop-opacity:1;" offset="0.0273438"/><stop style="stop-color:#bc9bfe;stop-opacity:1;" offset="0.0390625"/><stop style="stop-color:#bb9bfd;stop-opacity:1;" offset="0.0507812"/><stop style="stop-color:#bb9afd;stop-opacity:1;" offset="0.0625"/><stop style="stop-color:#ba99fd;stop-opacity:1;" offset="0.0742188"/><stop style="stop-color:#ba98fc;stop-opacity:1;" offset="0.0859375"/><stop style="stop-color:#b998fc;stop-opacity:1;" offset="0.0976562"/><stop style="stop-color:#b997fc;stop-opacity:1;" offset="0.109375"/><stop style="stop-color:#b896fb;stop-opacity:1;" offset="0.121094"/><stop style="stop-color:#b895fb;stop-opacity:1;" offset="0.132812"/><stop style="stop-color:#b795fb;stop-opacity:1;" offset="0.144531"/><stop style="stop-color:#b794fa;stop-opacity:1;" offset="0.15625"/><stop style="stop-color:#b693fa;stop-opacity:1;" offset="0.167969"/><stop style="stop-color:#b692fa;stop-opacity:1;" offset="0.179688"/><stop style="stop-color:#b592f9;stop-opacity:1;" offset="0.191406"/><stop style="stop-color:#b591f9;stop-opacity:1;" offset="0.203125"/><stop style="stop-color:#b490f9;stop-opacity:1;" offset="0.214844"/><stop style="stop-color:#b48ff8;stop-opacity:1;" offset="0.226562"/><stop style="stop-color:#b38ff8;stop-opacity:1;" offset="0.238281"/><stop style="stop-color:#b38ef8;stop-opacity:1;" offset="0.25"/><stop style="stop-color:#b28df7;stop-opacity:1;" offset="0.261719"/><stop style="stop-color:#b28df7;stop-opacity:1;" offset="0.269531"/><stop style="stop-color:#b28cf7;stop-opacity:1;" offset="0.277344"/><stop style="stop-color:#b18cf7;stop-opacity:1;" offset="0.285156"/><stop style="stop-color:#b18bf6;stop-opacity:1;" offset="0.292969"/><stop style="stop-color:#b18bf6;stop-opacity:1;" offset="0.300781"/><stop style="stop-color:#b08af6;stop-opacity:1;" offset="0.308594"/><stop style="stop-color:#b08af6;stop-opacity:1;" offset="0.316406"/><stop style="stop-color:#b089f5;stop-opacity:1;" offset="0.324219"/><stop style="stop-color:#af89f5;stop-opacity:1;" offset="0.332031"/><stop style="stop-color:#af88f5;stop-opacity:1;" offset="0.339844"/><stop style="stop-color:#af88f5;stop-opacity:1;" offset="0.347656"/><stop style="stop-color:#ae87f5;stop-opacity:1;" offset="0.355469"/><stop style="stop-color:#ae87f4;stop-opacity:1;" offset="0.363281"/><stop style="stop-color:#ae86f4;stop-opacity:1;" offset="0.371094"/><stop style="stop-color:#ad86f4;stop-opacity:1;" offset="0.378906"/><stop style="stop-color:#ac85f3;stop-opacity:1;" offset="0.394531"/><stop style="stop-color:#ac84f3;stop-opacity:1;" offset="0.410156"/><stop style="stop-color:#ab83f2;stop-opacity:1;" offset="0.425781"/><stop style="stop-color:#aa82f2;stop-opacity:1;" offset="0.441406"/><stop style="stop-color:#aa81f1;stop-opacity:1;" offset="0.457031"/><stop style="stop-color:#a980f1;stop-opacity:1;" offset="0.472656"/><stop style="stop-color:#a87ff1;stop-opacity:1;" offset="0.488281"/><stop style="stop-color:#a87ef0;stop-opacity:1;" offset="0.503906"/><stop style="stop-color:#a77df0;stop-opacity:1;" offset="0.515625"/><stop style="stop-color:#a77def;stop-opacity:1;" offset="0.527344"/><stop style="stop-color:#a67cef;stop-opacity:1;" offset="0.539062"/><stop style="stop-color:#a67bef;stop-opacity:1;" offset="0.550781"/><stop style="stop-color:#a57aee;stop-opacity:1;" offset="0.5625"/><stop style="stop-color:#a57aee;stop-opacity:1;" offset="0.574219"/><stop style="stop-color:#a479ee;stop-opacity:1;" offset="0.585938"/><stop style="stop-color:#a478ed;stop-opacity:1;" offset="0.597656"/><stop style="stop-color:#a377ed;stop-opacity:1;" offset="0.609375"/><stop style="stop-color:#a277ed;stop-opacity:1;" offset="0.621094"/><stop style="stop-color:#a276ec;stop-opacity:1;" offset="0.632812"/><stop style="stop-color:#a276ec;stop-opacity:1;" offset="0.640625"/><stop style="stop-color:#a175ec;stop-opacity:1;" offset="0.648438"/><stop style="stop-color:#a175ec;stop-opacity:1;" offset="0.65625"/><stop style="stop-color:#a174ec;stop-opacity:1;" offset="0.664062"/><stop style="stop-color:#a074eb;stop-opacity:1;" offset="0.671875"/><stop style="stop-color:#a073eb;stop-opacity:1;" offset="0.679688"/><stop style="stop-color:#a073eb;stop-opacity:1;" offset="0.6875"/><stop style="stop-color:#9f72eb;stop-opacity:1;" offset="0.695312"/><stop style="stop-color:#9e71ea;stop-opacity:1;" offset="0.710938"/><stop style="stop-color:#9e70ea;stop-opacity:1;" offset="0.726562"/><stop style="stop-color:#9d6fe9;stop-opacity:1;" offset="0.742188"/><stop style="stop-color:#9c6ee9;stop-opacity:1;" offset="0.757812"/><stop style="stop-color:#9c6de8;stop-opacity:1;" offset="0.769531"/><stop style="stop-color:#9b6de8;stop-opacity:1;" offset="0.78125"/><stop style="stop-color:#9b6ce8;stop-opacity:1;" offset="0.792969"/><stop style="stop-color:#9a6be7;stop-opacity:1;" offset="0.804688"/><stop style="stop-color:#9a6ae7;stop-opacity:1;" offset="0.816406"/><stop style="stop-color:#9a6ae7;stop-opacity:1;" offset="0.824219"/><stop style="stop-color:#9969e7;stop-opacity:1;" offset="0.832031"/><stop style="stop-color:#9969e6;stop-opacity:1;" offset="0.839844"/><stop style="stop-color:#9868e6;stop-opacity:1;" offset="0.847656"/><stop style="stop-color:#9867e6;stop-opacity:1;" offset="0.863281"/><stop style="stop-color:#9766e5;stop-opacity:1;" offset="0.878906"/><stop style="stop-color:#9766e5;stop-opacity:1;" offset="0.890625"/><stop style="stop-color:#9665e5;stop-opacity:1;" offset="0.902344"/><stop style="stop-color:#9664e4;stop-opacity:1;" offset="0.914062"/><stop style="stop-color:#9564e4;stop-opacity:1;" offset="0.921875"/><stop style="stop-color:#9563e4;stop-opacity:1;" offset="0.929688"/><stop style="stop-color:#9462e3;stop-opacity:1;" offset="0.945312"/><stop style="stop-color:#9462e3;stop-opacity:1;" offset="0.957031"/><stop style="stop-color:#9361e3;stop-opacity:1;" offset="0.964844"/><stop style="stop-color:#9360e2;stop-opacity:1;" offset="0.980469"/><stop style="stop-color:#925fe2;stop-opacity:1;" offset="0.988281"/><stop style="stop-color:#925fe2;stop-opacity:1;" offset="1"/></radialGradient><clipPath id="442b773068"><path d="M 136 127 L 262.046875 127 L 262.046875 233.550781 L 136 233.550781 Z M 136 127 "/></clipPath><clipPath id="73f7ac6712"><path d="M 112.796875 84.300781 L 239 84.300781 L 239 191 L 112.796875 191 Z M 112.796875 84.300781 "/></clipPath><clipPath id="7cf5150eef"><path d="M 102 49 L 229 49 L 229 125 L 102 125 Z M 102 49 "/></clipPath><clipPath id="fd9f4f722d"><path d="M 110.632812 42.738281 L 230.070312 60.488281 L 217.609375 144.316406 L 98.171875 126.566406 Z M 110.632812 42.738281 "/></clipPath><clipPath id="123d588ebb"><path d="M 110.632812 42.738281 L 230.070312 60.488281 L 208.015625 208.859375 L 88.578125 191.105469 Z M 110.632812 42.738281 "/></clipPath><clipPath id="d421286f3f"><path d="M 122 84 L 221 84 L 221 145 L 122 145 Z M 122 84 "/></clipPath><clipPath id="524f6bf155"><path d="M 110.632812 42.738281 L 230.070312 60.488281 L 217.609375 144.316406 L 98.171875 126.566406 Z M 110.632812 42.738281 "/></clipPath><clipPath id="85cd4835bf"><path d="M 110.632812 42.738281 L 230.070312 60.488281 L 208.015625 208.859375 L 88.578125 191.105469 Z M 110.632812 42.738281 "/></clipPath><clipPath id="cfe256189a"><path d="M 112.796875 253.957031 L 142.796875 253.957031 L 142.796875 274 L 112.796875 274 Z M 112.796875 253.957031 "/></clipPath><clipPath id="4e5ab50ee1"><path d="M 119 261 L 142 261 L 142 290.707031 L 119 290.707031 Z M 119 261 "/></clipPath></defs><g id="77d0f40b13"><rect x="0" width="375" y="0" height="374.999991" style="fill:#ffffff;fill-opacity:1;stroke:none;"/><rect x="0" width="375" y="0" height="374.999991" style="fill:url(#radial0);stroke:none;"/><g clip-rule="nonzero" clip-path="url(#442b773068)"><path style=" stroke:none;fill-rule:nonzero;fill:#ffffff;fill-opacity:1;" d="M 254.976562 127.226562 C 255.390625 128.070312 255.785156 128.992188 256.167969 129.890625 C 258.507812 135.421875 260.152344 141.15625 261.09375 147.035156 C 261.722656 150.941406 262.035156 154.914062 262.035156 158.929688 C 262.035156 168.996094 260.0625 178.769531 256.167969 187.976562 C 252.410156 196.863281 247.03125 204.84375 240.179688 211.691406 C 233.332031 218.542969 225.355469 223.921875 216.46875 227.683594 C 207.261719 231.574219 197.488281 233.554688 187.421875 233.554688 C 177.355469 233.554688 167.582031 231.59375 158.375 227.699219 C 150.386719 224.320312 143.132812 219.679688 136.773438 213.773438 L 187.417969 213.773438 C 217.628906 213.773438 242.210938 189.144531 242.210938 158.9375 C 242.210938 154.851562 241.757812 150.855469 240.90625 146.992188 L 187.425781 146.992188 L 187.425781 147.035156 C 180.769531 147.035156 175.460938 152.429688 175.460938 159.007812 C 175.460938 165.585938 180.820312 170.980469 187.417969 170.980469 L 216.878906 170.980469 C 215.300781 174.835938 212.945312 178.398438 209.890625 181.457031 C 203.886719 187.453125 195.90625 190.71875 187.417969 190.71875 C 178.929688 190.71875 170.949219 187.421875 164.953125 181.429688 C 158.945312 175.433594 155.636719 167.457031 155.636719 158.96875 C 155.636719 150.476562 158.949219 142.5 164.957031 136.503906 C 170.960938 130.511719 178.9375 127.222656 187.429688 127.222656 Z M 254.976562 127.226562 "/></g><g clip-rule="nonzero" clip-path="url(#73f7ac6712)"><path style=" stroke:none;fill-rule:nonzero;fill:#ffffff;fill-opacity:1;" d="M 112.8125 158.933594 C 112.8125 148.867188 114.785156 139.082031 118.679688 129.882812 C 122.4375 120.996094 127.816406 113.015625 134.664062 106.164062 C 141.515625 99.316406 149.492188 93.933594 158.378906 90.175781 C 167.585938 86.285156 177.355469 84.300781 187.425781 84.300781 C 197.492188 84.300781 207.265625 86.261719 216.472656 90.15625 C 224.457031 93.535156 231.710938 98.175781 238.074219 104.085938 L 187.425781 104.085938 C 157.210938 104.085938 132.632812 128.707031 132.632812 158.917969 C 132.632812 170.761719 136.410156 181.714844 142.828125 190.753906 L 119.910156 190.753906 C 119.484375 189.789062 119.070312 188.917969 118.683594 187.992188 C 114.785156 178.78125 112.8125 169.003906 112.8125 158.933594 Z M 112.8125 158.933594 "/></g><g clip-rule="nonzero" clip-path="url(#7cf5150eef)"><g clip-rule="nonzero" clip-path="url(#fd9f4f722d)"><g clip-rule="nonzero" clip-path="url(#123d588ebb)"><path style=" stroke:none;fill-rule:evenodd;fill:#ffffff;fill-opacity:1;" d="M 102.832031 95.398438 L 117.425781 99.496094 L 110.59375 123.125 L 117.734375 124.128906 L 121.269531 100.636719 L 127.285156 102.269531 C 127.753906 104.648438 128.847656 108.777344 130.300781 110.871094 C 134.96875 106.117188 136.984375 98.1875 152.300781 89.21875 C 165.738281 81.347656 182.871094 79.085938 198.417969 83.550781 C 202.878906 84.832031 206.132812 86.703125 209.933594 87.984375 L 208.683594 81.34375 L 223.945312 70.746094 C 225.140625 70.007812 225.398438 69.84375 226.53125 68.917969 L 228.707031 66.914062 L 157.738281 49.738281 C 155.128906 52.894531 135.460938 68.191406 130.402344 72.667969 Z M 102.832031 95.398438 "/></g></g></g><g clip-rule="nonzero" clip-path="url(#d421286f3f)"><g clip-rule="nonzero" clip-path="url(#524f6bf155)"><g clip-rule="nonzero" clip-path="url(#85cd4835bf)"><path style=" stroke:none;fill-rule:evenodd;fill:#ffffff;fill-opacity:1;" d="M 184.640625 194.097656 C 151.835938 189.621094 129.238281 156.4375 142.511719 122.644531 C 151.351562 100.125 174.621094 87.738281 197.179688 90.257812 C 210.804688 91.78125 213.3125 95.734375 220.695312 98.859375 L 219.613281 97.625 C 219.527344 97.539062 219.421875 97.445312 219.335938 97.367188 C 218.832031 96.910156 218.382812 96.609375 217.890625 96.25 C 173.785156 64.304688 111.355469 103.941406 124.859375 159.109375 C 129.242188 177.027344 141.753906 191.882812 158.695312 199.289062 C 166.453125 202.683594 165.835938 202.402344 172.984375 199.792969 C 175.484375 198.882812 183.5 195.671875 184.640625 194.097656 Z M 184.640625 194.097656 "/></g></g></g><g clip-rule="nonzero" clip-path="url(#cfe256189a)"><path style=" stroke:none;fill-rule:evenodd;fill:#ffffff;fill-opacity:1;" d="M 112.800781 267 L 116.484375 267.46875 L 115.679688 273.441406 L 117.445312 273.425781 L 117.457031 267.605469 L 118.972656 267.785156 C 119.171875 268.34375 119.585938 269.304688 120.015625 269.761719 C 120.976562 268.441406 121.175781 266.445312 124.566406 263.71875 C 127.539062 261.328125 131.609375 260.164062 135.539062 260.6875 C 136.664062 260.835938 137.519531 261.171875 138.488281 261.34375 L 137.945312 259.78125 L 141.261719 256.664062 C 141.527344 256.441406 141.582031 256.390625 141.824219 256.125 L 142.277344 255.5625 L 124.460938 253.957031 C 123.941406 254.816406 119.726562 259.230469 118.664062 260.5 Z M 112.800781 267 "/></g><g clip-rule="nonzero" clip-path="url(#4e5ab50ee1)"><path style=" stroke:none;fill-rule:evenodd;fill:#ffffff;fill-opacity:1;" d="M 136.179688 287.972656 C 128.070312 288.070312 121.398438 280.839844 123.398438 272.171875 C 124.730469 266.398438 129.921875 262.558594 135.480469 262.355469 C 138.835938 262.234375 139.585938 263.101562 141.488281 263.59375 L 141.179688 263.332031 C 141.15625 263.316406 141.128906 263.296875 141.105469 263.28125 C 140.964844 263.1875 140.847656 263.132812 140.714844 263.0625 C 128.875 256.910156 115.171875 268.761719 120.433594 281.644531 C 122.140625 285.832031 125.707031 288.980469 130.082031 290.164062 C 132.082031 290.707031 131.921875 290.660156 133.5625 289.773438 C 134.132812 289.460938 135.960938 288.394531 136.179688 287.972656 Z M 136.179688 287.972656 "/></g><g style="fill:#ffffff;fill-opacity:1;"><g transform="translate(127.484367, 284.001953)"><path style="stroke:none" d="M 8.46875 0.21875 C 7 0.21875 5.679688 -0.09375 4.515625 -0.71875 C 3.347656 -1.34375 2.425781 -2.234375 1.75 -3.390625 C 1.082031 -4.554688 0.75 -5.914062 0.75 -7.46875 C 0.75 -9.007812 1.085938 -10.363281 1.765625 -11.53125 C 2.441406 -12.707031 3.367188 -13.609375 4.546875 -14.234375 C 5.734375 -14.859375 7.054688 -15.171875 8.515625 -15.171875 C 9.984375 -15.171875 11.304688 -14.859375 12.484375 -14.234375 C 13.660156 -13.609375 14.585938 -12.707031 15.265625 -11.53125 C 15.953125 -10.363281 16.296875 -9.007812 16.296875 -7.46875 C 16.296875 -5.9375 15.953125 -4.582031 15.265625 -3.40625 C 14.578125 -2.238281 13.640625 -1.34375 12.453125 -0.71875 C 11.265625 -0.09375 9.9375 0.21875 8.46875 0.21875 Z M 8.46875 -3.75 C 9.34375 -3.75 10.085938 -4.070312 10.703125 -4.71875 C 11.316406 -5.363281 11.625 -6.28125 11.625 -7.46875 C 11.625 -8.664062 11.320312 -9.585938 10.71875 -10.234375 C 10.125 -10.878906 9.390625 -11.203125 8.515625 -11.203125 C 7.628906 -11.203125 6.890625 -10.882812 6.296875 -10.25 C 5.703125 -9.613281 5.40625 -8.6875 5.40625 -7.46875 C 5.40625 -6.28125 5.695312 -5.363281 6.28125 -4.71875 C 6.863281 -4.070312 7.59375 -3.75 8.46875 -3.75 Z M 8.46875 -3.75 "/></g></g><g style="fill:#ffffff;fill-opacity:1;"><g transform="translate(144.54896, 284.001953)"><path style="stroke:none" d="M 0.75 -7.5 C 0.75 -9.039062 1.035156 -10.390625 1.609375 -11.546875 C 2.191406 -12.710938 2.984375 -13.609375 3.984375 -14.234375 C 4.992188 -14.859375 6.113281 -15.171875 7.34375 -15.171875 C 8.320312 -15.171875 9.21875 -14.960938 10.03125 -14.546875 C 10.84375 -14.140625 11.484375 -13.585938 11.953125 -12.890625 L 11.953125 -19.828125 L 16.53125 -19.828125 L 16.53125 0 L 11.953125 0 L 11.953125 -2.140625 C 11.523438 -1.429688 10.910156 -0.859375 10.109375 -0.421875 C 9.316406 0.00390625 8.394531 0.21875 7.34375 0.21875 C 6.113281 0.21875 4.992188 -0.0976562 3.984375 -0.734375 C 2.984375 -1.367188 2.191406 -2.269531 1.609375 -3.4375 C 1.035156 -4.613281 0.75 -5.96875 0.75 -7.5 Z M 11.953125 -7.46875 C 11.953125 -8.613281 11.632812 -9.515625 11 -10.171875 C 10.363281 -10.835938 9.59375 -11.171875 8.6875 -11.171875 C 7.769531 -11.171875 6.992188 -10.84375 6.359375 -10.1875 C 5.722656 -9.539062 5.40625 -8.644531 5.40625 -7.5 C 5.40625 -6.351562 5.722656 -5.445312 6.359375 -4.78125 C 6.992188 -4.113281 7.769531 -3.78125 8.6875 -3.78125 C 9.59375 -3.78125 10.363281 -4.109375 11 -4.765625 C 11.632812 -5.429688 11.953125 -6.332031 11.953125 -7.46875 Z M 11.953125 -7.46875 "/></g></g><g style="fill:#ffffff;fill-opacity:1;"><g transform="translate(162.738702, 284.001953)"><path style="stroke:none" d="M 15.75 -7.71875 C 15.75 -7.289062 15.722656 -6.84375 15.671875 -6.375 L 5.3125 -6.375 C 5.375 -5.445312 5.671875 -4.738281 6.203125 -4.25 C 6.734375 -3.757812 7.378906 -3.515625 8.140625 -3.515625 C 9.285156 -3.515625 10.082031 -3.992188 10.53125 -4.953125 L 15.40625 -4.953125 C 15.15625 -3.972656 14.703125 -3.085938 14.046875 -2.296875 C 13.398438 -1.515625 12.582031 -0.898438 11.59375 -0.453125 C 10.613281 -0.00390625 9.519531 0.21875 8.3125 0.21875 C 6.84375 0.21875 5.535156 -0.09375 4.390625 -0.71875 C 3.242188 -1.34375 2.347656 -2.234375 1.703125 -3.390625 C 1.066406 -4.554688 0.75 -5.914062 0.75 -7.46875 C 0.75 -9.03125 1.066406 -10.390625 1.703125 -11.546875 C 2.335938 -12.710938 3.222656 -13.609375 4.359375 -14.234375 C 5.503906 -14.859375 6.820312 -15.171875 8.3125 -15.171875 C 9.757812 -15.171875 11.046875 -14.863281 12.171875 -14.25 C 13.296875 -13.644531 14.171875 -12.78125 14.796875 -11.65625 C 15.429688 -10.53125 15.75 -9.21875 15.75 -7.71875 Z M 11.0625 -8.921875 C 11.0625 -9.710938 10.789062 -10.335938 10.25 -10.796875 C 9.71875 -11.265625 9.050781 -11.5 8.25 -11.5 C 7.476562 -11.5 6.828125 -11.273438 6.296875 -10.828125 C 5.773438 -10.378906 5.453125 -9.742188 5.328125 -8.921875 Z M 11.0625 -8.921875 "/></g></g><g style="fill:#ffffff;fill-opacity:1;"><g transform="translate(179.240726, 284.001953)"><path style="stroke:none" d="M 14.15625 -12.859375 C 13.8125 -13.484375 13.320312 -13.960938 12.6875 -14.296875 C 12.050781 -14.628906 11.304688 -14.796875 10.453125 -14.796875 C 8.972656 -14.796875 7.785156 -14.304688 6.890625 -13.328125 C 5.992188 -12.359375 5.546875 -11.0625 5.546875 -9.4375 C 5.546875 -7.695312 6.015625 -6.335938 6.953125 -5.359375 C 7.890625 -4.390625 9.179688 -3.90625 10.828125 -3.90625 C 11.953125 -3.90625 12.898438 -4.191406 13.671875 -4.765625 C 14.453125 -5.335938 15.019531 -6.160156 15.375 -7.234375 L 9.5625 -7.234375 L 9.5625 -10.609375 L 19.53125 -10.609375 L 19.53125 -6.34375 C 19.195312 -5.207031 18.625 -4.144531 17.8125 -3.15625 C 17 -2.175781 15.960938 -1.378906 14.703125 -0.765625 C 13.453125 -0.160156 12.046875 0.140625 10.484375 0.140625 C 8.617188 0.140625 6.957031 -0.265625 5.5 -1.078125 C 4.050781 -1.890625 2.921875 -3.019531 2.109375 -4.46875 C 1.296875 -5.914062 0.890625 -7.570312 0.890625 -9.4375 C 0.890625 -11.289062 1.296875 -12.945312 2.109375 -14.40625 C 2.921875 -15.863281 4.046875 -17 5.484375 -17.8125 C 6.929688 -18.625 8.585938 -19.03125 10.453125 -19.03125 C 12.703125 -19.03125 14.597656 -18.484375 16.140625 -17.390625 C 17.691406 -16.296875 18.71875 -14.785156 19.21875 -12.859375 Z M 14.15625 -12.859375 "/></g></g><g style="fill:#ffffff;fill-opacity:1;"><g transform="translate(199.653952, 284.001953)"><path style="stroke:none" d="M 6.25 -12.453125 C 6.78125 -13.273438 7.445312 -13.921875 8.25 -14.390625 C 9.050781 -14.867188 9.945312 -15.109375 10.9375 -15.109375 L 10.9375 -10.265625 L 9.671875 -10.265625 C 8.523438 -10.265625 7.664062 -10.019531 7.09375 -9.53125 C 6.53125 -9.039062 6.25 -8.175781 6.25 -6.9375 L 6.25 0 L 1.65625 0 L 1.65625 -14.953125 L 6.25 -14.953125 Z M 6.25 -12.453125 "/></g></g><g style="fill:#ffffff;fill-opacity:1;"><g transform="translate(211.11965, 284.001953)"><path style="stroke:none" d="M 0.75 -7.5 C 0.75 -9.039062 1.035156 -10.390625 1.609375 -11.546875 C 2.191406 -12.710938 2.984375 -13.609375 3.984375 -14.234375 C 4.992188 -14.859375 6.113281 -15.171875 7.34375 -15.171875 C 8.394531 -15.171875 9.316406 -14.953125 10.109375 -14.515625 C 10.910156 -14.085938 11.523438 -13.523438 11.953125 -12.828125 L 11.953125 -14.953125 L 16.53125 -14.953125 L 16.53125 0 L 11.953125 0 L 11.953125 -2.109375 C 11.503906 -1.421875 10.878906 -0.859375 10.078125 -0.421875 C 9.285156 0.00390625 8.363281 0.21875 7.3125 0.21875 C 6.101562 0.21875 4.992188 -0.0976562 3.984375 -0.734375 C 2.984375 -1.367188 2.191406 -2.269531 1.609375 -3.4375 C 1.035156 -4.613281 0.75 -5.96875 0.75 -7.5 Z M 11.953125 -7.46875 C 11.953125 -8.613281 11.632812 -9.515625 11 -10.171875 C 10.363281 -10.835938 9.59375 -11.171875 8.6875 -11.171875 C 7.769531 -11.171875 6.992188 -10.84375 6.359375 -10.1875 C 5.722656 -9.539062 5.40625 -8.644531 5.40625 -7.5 C 5.40625 -6.351562 5.722656 -5.445312 6.359375 -4.78125 C 6.992188 -4.113281 7.769531 -3.78125 8.6875 -3.78125 C 9.59375 -3.78125 10.363281 -4.109375 11 -4.765625 C 11.632812 -5.429688 11.953125 -6.332031 11.953125 -7.46875 Z M 11.953125 -7.46875 "/></g></g><g style="fill:#ffffff;fill-opacity:1;"><g transform="translate(229.309392, 284.001953)"><path style="stroke:none" d="M 0.75 -7.5 C 0.75 -9.039062 1.035156 -10.390625 1.609375 -11.546875 C 2.191406 -12.710938 2.984375 -13.609375 3.984375 -14.234375 C 4.992188 -14.859375 6.113281 -15.171875 7.34375 -15.171875 C 8.320312 -15.171875 9.21875 -14.960938 10.03125 -14.546875 C 10.84375 -14.140625 11.484375 -13.585938 11.953125 -12.890625 L 11.953125 -19.828125 L 16.53125 -19.828125 L 16.53125 0 L 11.953125 0 L 11.953125 -2.140625 C 11.523438 -1.429688 10.910156 -0.859375 10.109375 -0.421875 C 9.316406 0.00390625 8.394531 0.21875 7.34375 0.21875 C 6.113281 0.21875 4.992188 -0.0976562 3.984375 -0.734375 C 2.984375 -1.367188 2.191406 -2.269531 1.609375 -3.4375 C 1.035156 -4.613281 0.75 -5.96875 0.75 -7.5 Z M 11.953125 -7.46875 C 11.953125 -8.613281 11.632812 -9.515625 11 -10.171875 C 10.363281 -10.835938 9.59375 -11.171875 8.6875 -11.171875 C 7.769531 -11.171875 6.992188 -10.84375 6.359375 -10.1875 C 5.722656 -9.539062 5.40625 -8.644531 5.40625 -7.5 C 5.40625 -6.351562 5.722656 -5.445312 6.359375 -4.78125 C 6.992188 -4.113281 7.769531 -3.78125 8.6875 -3.78125 C 9.59375 -3.78125 10.363281 -4.109375 11 -4.765625 C 11.632812 -5.429688 11.953125 -6.332031 11.953125 -7.46875 Z M 11.953125 -7.46875 "/></g></g></g></svg>