<svg width="26" height="26" viewBox="0 0 26 26" fill="none" xmlns="http://www.w3.org/2000/svg">
<g clip-path="url(#clip0_20_541)">
<path d="M13 2.16675C7.02 2.16675 2.16667 7.02008 2.16667 13.0001C2.16667 18.9801 7.02 23.8334 13 23.8334C18.98 23.8334 23.8333 18.9801 23.8333 13.0001C23.8333 7.02008 18.98 2.16675 13 2.16675ZM13 6.50008C15.0908 6.50008 16.7917 8.20091 16.7917 10.2917C16.7917 12.3826 15.0908 14.0834 13 14.0834C10.9092 14.0834 9.20834 12.3826 9.20834 10.2917C9.20834 8.20091 10.9092 6.50008 13 6.50008ZM13 21.6667C10.8008 21.6667 8.20084 20.7784 6.34834 18.5467C8.17917 17.1167 10.4867 16.2501 13 16.2501C15.5133 16.2501 17.8208 17.1167 19.6517 18.5467C17.7992 20.7784 15.1992 21.6667 13 21.6667Z" fill="white"/>
</g>
<defs>
<clipPath id="clip0_20_541">
<rect width="26" height="26" fill="white"/>
</clipPath>
</defs>
</svg>
