<svg width="21" height="24" viewBox="0 0 21 24" fill="none" xmlns="http://www.w3.org/2000/svg">
<path d="M10.2917 0C9.0025 0 7.865 0.6435 7.18033 1.625H0V23.2917H20.5833V1.625H13.403C13.0538 1.12343 12.5884 0.713727 12.0467 0.430784C11.505 0.147841 10.9028 4.91268e-05 10.2917 0ZM7.04167 9.75C7.04167 8.88805 7.38408 8.0614 7.99357 7.4519C8.60306 6.84241 9.42971 6.5 10.2917 6.5C11.1536 6.5 11.9803 6.84241 12.5898 7.4519C13.1993 8.0614 13.5417 8.88805 13.5417 9.75C13.5417 10.612 13.1993 11.4386 12.5898 12.0481C11.9803 12.6576 11.1536 13 10.2917 13C9.42971 13 8.60306 12.6576 7.99357 12.0481C7.38408 11.4386 7.04167 10.612 7.04167 9.75ZM3.79167 18.9583C3.79167 17.8091 4.24821 16.7069 5.06087 15.8942C5.87353 15.0815 6.97573 14.625 8.125 14.625H12.4583C13.6076 14.625 14.7098 15.0815 15.5225 15.8942C16.3351 16.7069 16.7917 17.8091 16.7917 18.9583V20.0417H3.79167V18.9583Z" fill="black"/>
</svg>
