<svg width="14" height="8" viewBox="0 0 14 8" fill="none" xmlns="http://www.w3.org/2000/svg">
<path d="M6.91626 5.4797L12.1453 0.288696C12.3313 0.103789 12.5829 0 12.8452 0C13.1075 0 13.3592 0.103789 13.5453 0.288696C13.6369 0.379447 13.7096 0.487457 13.7593 0.606491C13.8089 0.725525 13.8345 0.85322 13.8345 0.982193C13.8345 1.11117 13.8089 1.23886 13.7593 1.35789C13.7096 1.47693 13.6369 1.58495 13.5453 1.6757L7.61719 7.56069C7.43114 7.7456 7.17954 7.84939 6.91724 7.84939C6.65493 7.84939 6.40333 7.7456 6.21729 7.56069L0.289185 1.6757C0.197543 1.58495 0.124842 1.47693 0.0751953 1.35789C0.0255486 1.23886 0 1.11117 0 0.982193C0 0.85322 0.0255486 0.725525 0.0751953 0.606491C0.124842 0.487457 0.197543 0.379447 0.289185 0.288696C0.475358 0.104031 0.727033 0.000411987 0.989258 0.000411987C1.25148 0.000411987 1.50304 0.104031 1.68921 0.288696L6.91626 5.4797Z" fill="white"/>
</svg>
