<svg width="80" height="80" viewBox="0 0 80 80" fill="none" xmlns="http://www.w3.org/2000/svg">
<path d="M7.95031 76.1905C5.76398 76.1905 3.89168 75.4451 2.33342 73.9543C0.777805 72.461 0 70.6667 0 68.5714V15.2381C0 13.1429 0.777805 11.3498 2.33342 9.85905C3.89168 8.36571 5.76398 7.61905 7.95031 7.61905H11.9255V3.80952C11.9255 2.73016 12.3058 1.82476 13.0663 1.09333C13.8296 0.364444 14.7743 0 15.9006 0C17.0269 0 17.9717 0.364444 18.7349 1.09333C19.4955 1.82476 19.8758 2.73016 19.8758 3.80952V7.61905H51.677V3.80952C51.677 2.73016 52.0586 1.82476 52.8219 1.09333C53.5824 0.364444 54.5259 0 55.6522 0C56.7785 0 57.7219 0.364444 58.4825 1.09333C59.2457 1.82476 59.6273 2.73016 59.6273 3.80952V7.61905H63.6025C65.7888 7.61905 67.6611 8.36571 69.2194 9.85905C70.775 11.3498 71.5528 13.1429 71.5528 15.2381V38.0952H63.6025V30.4762H7.95031V68.5714H35.7764V76.1905H7.95031ZM76.0248 57.1429L67.5776 49.0476L70.4596 46.2857C71.1884 45.5873 72.1159 45.2381 73.2422 45.2381C74.3685 45.2381 75.2961 45.5873 76.0248 46.2857L78.9068 49.0476C79.6356 49.746 80 50.6349 80 51.7143C80 52.7937 79.6356 53.6825 78.9068 54.381L76.0248 57.1429ZM43.7267 78.0952V73.5238C43.7267 73.0159 43.8261 72.5244 44.0248 72.0495C44.2236 71.5721 44.5217 71.1429 44.9193 70.7619L64.795 51.7143L73.2422 59.8095L53.3665 78.8571C52.9689 79.2381 52.5224 79.5238 52.0268 79.7143C51.5286 79.9048 51.0145 80 50.4845 80H45.7143C45.1843 80 44.7205 79.8095 44.323 79.4286C43.9255 79.0476 43.7267 78.6032 43.7267 78.0952Z" fill="white"/>
</svg>
