<svg width="20" height="21" viewBox="0 0 20 21" fill="none" xmlns="http://www.w3.org/2000/svg">
<path d="M7.95832 12.77L15.0208 5.70752C15.1875 5.54085 15.3819 5.45752 15.6042 5.45752C15.8264 5.45752 16.0208 5.54085 16.1875 5.70752C16.3542 5.87419 16.4375 6.07224 16.4375 6.30169C16.4375 6.53113 16.3542 6.72891 16.1875 6.89502L8.54165 14.5617C8.37499 14.7284 8.18054 14.8117 7.95832 14.8117C7.7361 14.8117 7.54165 14.7284 7.37499 14.5617L3.79165 10.9784C3.62499 10.8117 3.54499 10.6139 3.55165 10.385C3.55832 10.1561 3.64527 9.95808 3.81249 9.79085C3.97971 9.62363 4.17777 9.5403 4.40665 9.54085C4.63554 9.54141 4.83332 9.62474 4.99999 9.79085L7.95832 12.77Z" fill="#72BF78"/>
</svg>
