<svg width="21" height="22" viewBox="0 0 21 22" fill="none" xmlns="http://www.w3.org/2000/svg">
<path d="M3.79167 9.75L9.75 0L15.7083 9.75H3.79167ZM15.7083 21.6667C14.3542 21.6667 13.2033 21.1929 12.2557 20.2453C11.3082 19.2978 10.8341 18.1466 10.8333 16.7917C10.8326 15.4368 11.3068 14.2859 12.2557 13.3391C13.2048 12.3923 14.3556 11.9181 15.7083 11.9167C17.0611 11.9152 18.2123 12.3894 19.162 13.3391C20.1117 14.2888 20.5855 15.4397 20.5833 16.7917C20.5812 18.1437 20.1074 19.2949 19.162 20.2453C18.2166 21.1958 17.0654 21.6696 15.7083 21.6667ZM0 21.125V12.4583H8.66667V21.125H0Z" fill="black"/>
</svg>
