<svg width="20" height="21" viewBox="0 0 20 21" fill="none" xmlns="http://www.w3.org/2000/svg">
<path d="M10.0002 11.2523L5.91683 15.3356C5.76405 15.4884 5.56961 15.5648 5.3335 15.5648C5.09738 15.5648 4.90294 15.4884 4.75016 15.3356C4.59738 15.1828 4.521 14.9884 4.521 14.7523C4.521 14.5162 4.59738 14.3217 4.75016 14.1689L8.8335 10.0856L4.75016 6.00228C4.59738 5.8495 4.521 5.65506 4.521 5.41895C4.521 5.18283 4.59738 4.98839 4.75016 4.83561C4.90294 4.68283 5.09738 4.60645 5.3335 4.60645C5.56961 4.60645 5.76405 4.68283 5.91683 4.83561L10.0002 8.91895L14.0835 4.83561C14.2363 4.68283 14.4307 4.60645 14.6668 4.60645C14.9029 4.60645 15.0974 4.68283 15.2502 4.83561C15.4029 4.98839 15.4793 5.18283 15.4793 5.41895C15.4793 5.65506 15.4029 5.8495 15.2502 6.00228L11.1668 10.0856L15.2502 14.1689C15.4029 14.3217 15.4793 14.5162 15.4793 14.7523C15.4793 14.9884 15.4029 15.1828 15.2502 15.3356C15.0974 15.4884 14.9029 15.5648 14.6668 15.5648C14.4307 15.5648 14.2363 15.4884 14.0835 15.3356L10.0002 11.2523Z" fill="#A52A2A"/>
</svg>
