<svg width="20" height="21" viewBox="0 0 20 21" fill="none" xmlns="http://www.w3.org/2000/svg">
<path d="M9.99992 11.2523L5.91659 15.3356C5.76381 15.4884 5.56936 15.5648 5.33325 15.5648C5.09714 15.5648 4.9027 15.4884 4.74992 15.3356C4.59714 15.1828 4.52075 14.9884 4.52075 14.7523C4.52075 14.5162 4.59714 14.3217 4.74992 14.1689L8.83325 10.0856L4.74992 6.00228C4.59714 5.8495 4.52075 5.65506 4.52075 5.41895C4.52075 5.18283 4.59714 4.98839 4.74992 4.83561C4.9027 4.68283 5.09714 4.60645 5.33325 4.60645C5.56936 4.60645 5.76381 4.68283 5.91659 4.83561L9.99992 8.91895L14.0833 4.83561C14.236 4.68283 14.4305 4.60645 14.6666 4.60645C14.9027 4.60645 15.0971 4.68283 15.2499 4.83561C15.4027 4.98839 15.4791 5.18283 15.4791 5.41895C15.4791 5.65506 15.4027 5.8495 15.2499 6.00228L11.1666 10.0856L15.2499 14.1689C15.4027 14.3217 15.4791 14.5162 15.4791 14.7523C15.4791 14.9884 15.4027 15.1828 15.2499 15.3356C15.0971 15.4884 14.9027 15.5648 14.6666 15.5648C14.4305 15.5648 14.236 15.4884 14.0833 15.3356L9.99992 11.2523Z" fill="#925FE2"/>
</svg>
