<svg width="46" height="47" viewBox="0 0 46 47" fill="none" xmlns="http://www.w3.org/2000/svg">
<path d="M14.2988 37.9444H10.6188C4.98376 37.5419 2.45386 33.2103 2.45386 29.3578C2.45386 25.5053 4.98378 21.1545 10.5229 20.7711C11.3088 20.6945 11.9988 21.3078 12.0563 22.1128C12.1138 22.8986 11.5197 23.5886 10.7147 23.6461C6.99635 23.9145 5.32886 26.7128 5.32886 29.3769C5.32886 32.0411 6.99635 34.8395 10.7147 35.1078H14.2988C15.0847 35.1078 15.7363 35.7594 15.7363 36.5453C15.7363 37.3311 15.0847 37.9444 14.2988 37.9444Z" fill="#693CA8"/>
<path d="M31.9506 37.9442C31.9123 37.9442 31.8931 37.9442 31.8548 37.9442C31.069 37.9442 30.3407 37.2926 30.3407 36.5067C30.3407 35.6826 30.954 35.0692 31.759 35.0692C34.1165 35.0692 36.2248 34.2451 37.8731 32.7692C40.8631 30.1626 41.0548 26.4059 40.2498 23.7609C39.4448 21.1351 37.2023 18.1259 33.2923 17.6467C32.6598 17.5701 32.1614 17.0909 32.0464 16.4584C31.2797 11.8584 28.8073 8.67673 25.0506 7.52673C21.179 6.31923 16.6556 7.50757 13.8381 10.4592C11.0972 13.3151 10.4648 17.3209 12.0556 21.7292C12.3239 22.4767 11.9407 23.3009 11.1932 23.5692C10.4457 23.8376 9.62147 23.4542 9.35314 22.7067C7.4173 17.3017 8.29899 12.1267 11.7682 8.48507C15.314 4.76673 21.0065 3.29089 25.894 4.78589C30.379 6.16589 33.5414 9.86506 34.6914 15.0017C38.6014 15.8834 41.7448 18.8542 42.9906 22.9559C44.3514 27.4217 43.1248 32.0217 39.7706 34.9351C37.6431 36.8517 34.8639 37.9442 31.9506 37.9442Z" fill="#693CA8"/>
<path d="M23 43.5793C19.1475 43.5793 15.5442 41.5284 13.57 38.2126C13.3592 37.8868 13.1483 37.5034 12.9758 37.0818C12.3242 35.7209 11.9791 34.1684 11.9791 32.5584C11.9791 26.4826 16.9241 21.5376 23 21.5376C29.0758 21.5376 34.0208 26.4826 34.0208 32.5584C34.0208 34.1876 33.6758 35.7209 32.9858 37.1393C32.8325 37.5034 32.6217 37.8868 32.3917 38.2509C30.4558 41.5284 26.8525 43.5793 23 43.5793ZM23 24.4126C18.515 24.4126 14.8541 28.0734 14.8541 32.5584C14.8541 33.7468 15.1033 34.8584 15.5825 35.8743C15.7358 36.2001 15.8699 36.4684 16.0233 36.7176C17.4799 39.1901 20.1441 40.7043 22.9808 40.7043C25.8174 40.7043 28.4816 39.1901 29.9191 36.7559C30.0916 36.4684 30.245 36.2001 30.36 35.9318C30.8775 34.8776 31.1266 33.7659 31.1266 32.5776C31.1458 28.0734 27.485 24.4126 23 24.4126Z" fill="#693CA8"/>
<path d="M21.9073 35.8933C21.5431 35.8933 21.179 35.7591 20.8915 35.4716L18.9939 33.5741C18.4381 33.0183 18.4381 32.0983 18.9939 31.5424C19.5497 30.9866 20.4697 30.9866 21.0256 31.5424L21.9456 32.4624L25.0123 29.6258C25.6064 29.0891 26.5073 29.1274 27.0439 29.7024C27.5806 30.2774 27.5423 31.1974 26.9673 31.7341L22.8848 35.5099C22.5973 35.7591 22.2523 35.8933 21.9073 35.8933Z" fill="#693CA8"/>
</svg>
