<svg width="20" height="20" viewBox="0 0 20 20" fill="none" xmlns="http://www.w3.org/2000/svg">
<path d="M6.5 19.5H2.16667C0.975 19.5 0 18.525 0 17.3333V2.16667C0 0.975 0.975 0 2.16667 0H6.5C7.69167 0 8.66667 0.975 8.66667 2.16667V17.3333C8.66667 18.525 7.69167 19.5 6.5 19.5ZM13 19.5H17.3333C18.525 19.5 19.5 18.525 19.5 17.3333V11.9167C19.5 10.725 18.525 9.75 17.3333 9.75H13C11.8083 9.75 10.8333 10.725 10.8333 11.9167V17.3333C10.8333 18.525 11.8083 19.5 13 19.5ZM19.5 5.41667V2.16667C19.5 0.975 18.525 0 17.3333 0H13C11.8083 0 10.8333 0.975 10.8333 2.16667V5.41667C10.8333 6.60833 11.8083 7.58333 13 7.58333H17.3333C18.525 7.58333 19.5 6.60833 19.5 5.41667Z" fill="black"/>
</svg>
