<svg width="16" height="16" viewBox="0 0 16 16" fill="none" xmlns="http://www.w3.org/2000/svg">
<path d="M7.20452 1.3335C6.85986 1.3335 6.53055 1.4697 6.28655 1.7137L6.0001 2.00016H2.66676C2.57842 1.99891 2.49071 2.01523 2.40873 2.04818C2.32675 2.08112 2.25214 2.13003 2.18923 2.19206C2.12631 2.25409 2.07636 2.328 2.04226 2.40951C2.00816 2.49101 1.9906 2.57848 1.9906 2.66683C1.9906 2.75518 2.00816 2.84265 2.04226 2.92415C2.07636 3.00566 2.12631 3.07957 2.18923 3.1416C2.25214 3.20363 2.32675 3.25254 2.40873 3.28548C2.49071 3.31842 2.57842 3.33475 2.66676 3.3335H13.3334C13.4218 3.33475 13.5095 3.31842 13.5915 3.28548C13.6734 3.25254 13.7481 3.20363 13.811 3.1416C13.8739 3.07957 13.9238 3.00566 13.9579 2.92415C13.992 2.84265 14.0096 2.75518 14.0096 2.66683C14.0096 2.57848 13.992 2.49101 13.9579 2.40951C13.9238 2.328 13.8739 2.25409 13.811 2.19206C13.7481 2.13003 13.6734 2.08112 13.5915 2.04818C13.5095 2.01523 13.4218 1.99891 13.3334 2.00016H10.0001L9.71364 1.7137C9.4703 1.4697 9.14034 1.3335 8.79567 1.3335H7.20452ZM2.91025 4.66683L3.92848 13.5093C4.01648 14.1693 4.58476 14.6668 5.2501 14.6668H10.7488C11.4141 14.6668 11.983 14.1701 12.0717 13.5041L13.0899 4.66683H2.91025Z" fill="black" fill-opacity="0.8"/>
</svg>
