<svg width="16" height="20" viewBox="0 0 16 20" fill="none" xmlns="http://www.w3.org/2000/svg">
<path d="M2 20C1.45 20 0.979333 19.8043 0.588 19.413C0.196 19.021 0 18.55 0 18V2C0 1.45 0.196 0.979 0.588 0.587C0.979333 0.195667 1.45 0 2 0H9.175C9.44167 0 9.696 0.0500001 9.938 0.15C10.1793 0.25 10.3917 0.391667 10.575 0.575L15.425 5.425C15.6083 5.60833 15.75 5.82067 15.85 6.062C15.95 6.304 16 6.55833 16 6.825V18C16 18.55 15.8043 19.021 15.413 19.413C15.021 19.8043 14.55 20 14 20H2ZM9 6V2H2V18H14V7H10C9.71667 7 9.47933 6.904 9.288 6.712C9.096 6.52067 9 6.28333 9 6Z" fill="black" fill-opacity="0.8"/>
</svg>
