<svg width="300" height="240" viewBox="0 0 300 240" fill="none" xmlns="http://www.w3.org/2000/svg">
<path fill-rule="evenodd" clip-rule="evenodd" d="M248.4 78C253.039 78 256.8 81.7608 256.8 86.4C256.8 91.0392 253.039 94.8 248.4 94.8H200.4C205.039 94.8 208.8 98.5608 208.8 103.2C208.8 107.839 205.039 111.6 200.4 111.6H226.8C231.439 111.6 235.2 115.361 235.2 120C235.2 124.639 231.439 128.4 226.8 128.4H214.591C208.742 128.4 204 132.161 204 136.8C204 139.893 206.4 142.693 211.2 145.2C215.839 145.2 219.6 148.961 219.6 153.6C219.6 158.239 215.839 162 211.2 162H111.6C106.961 162 103.2 158.239 103.2 153.6C103.2 148.961 106.961 145.2 111.6 145.2H64.7999C60.1607 145.2 56.3999 141.439 56.3999 136.8C56.3999 132.161 60.1607 128.4 64.7999 128.4H112.8C117.439 128.4 121.2 124.639 121.2 120C121.2 115.361 117.439 111.6 112.8 111.6H82.7999C78.1607 111.6 74.3999 107.839 74.3999 103.2C74.3999 98.5608 78.1607 94.8 82.7999 94.8H130.8C126.161 94.8 122.4 91.0392 122.4 86.4C122.4 81.7608 126.161 78 130.8 78H248.4ZM248.4 111.6C253.039 111.6 256.8 115.361 256.8 120C256.8 124.639 253.039 128.4 248.4 128.4C243.761 128.4 240 124.639 240 120C240 115.361 243.761 111.6 248.4 111.6Z" fill="#925FE2" fill-opacity="0.2"/>
<path fill-rule="evenodd" clip-rule="evenodd" d="M184.406 76.8001L195.568 158.211L196.571 166.379C196.894 169.01 195.023 171.405 192.392 171.728L122.12 180.357C119.489 180.68 117.094 178.808 116.771 176.177L105.952 88.0642C105.79 86.7486 106.726 85.5512 108.041 85.3896C108.05 85.3886 108.058 85.3876 108.066 85.3867L113.896 84.7327M118.611 84.2039L124.115 83.5865Z" fill="white"/>
<path d="M185.645 76.6303C185.551 75.9464 184.92 75.4679 184.236 75.5617C183.552 75.6555 183.074 76.286 183.168 76.9699L185.645 76.6303ZM195.568 158.211L196.809 158.059C196.808 158.053 196.808 158.047 196.807 158.042L195.568 158.211ZM196.571 166.379L197.812 166.227L196.571 166.379ZM192.392 171.728L192.544 172.969L192.392 171.728ZM122.12 180.357L122.272 181.597L122.12 180.357ZM116.771 176.177L118.011 176.025L116.771 176.177ZM108.066 85.3867L108.206 86.6289L108.066 85.3867ZM114.036 85.9749C114.722 85.898 115.215 85.2794 115.138 84.5934C115.062 83.9073 114.443 83.4136 113.757 83.4905L114.036 85.9749ZM118.471 82.9617C117.785 83.0387 117.291 83.6572 117.368 84.3433C117.445 85.0293 118.064 85.5231 118.75 85.4461L118.471 82.9617ZM124.254 84.8287C124.94 84.7517 125.434 84.1332 125.357 83.4471C125.28 82.7611 124.662 82.2673 123.976 82.3443L124.254 84.8287ZM183.168 76.9699L194.33 158.381L196.807 158.042L185.645 76.6303L183.168 76.9699ZM194.328 158.364L195.331 166.531L197.812 166.227L196.809 158.059L194.328 158.364ZM195.331 166.531C195.57 168.477 194.186 170.249 192.24 170.487L192.544 172.969C195.861 172.562 198.219 169.543 197.812 166.227L195.331 166.531ZM192.24 170.487L121.967 179.116L122.272 181.597L192.544 172.969L192.24 170.487ZM121.967 179.116C120.021 179.355 118.25 177.971 118.011 176.025L115.53 176.33C115.937 179.646 118.956 182.004 122.272 181.597L121.967 179.116ZM118.011 176.025L107.192 87.9119L104.711 88.2166L115.53 176.33L118.011 176.025ZM107.192 87.9119C107.115 87.2815 107.563 86.7077 108.194 86.6303L107.889 84.149C105.888 84.3946 104.465 86.2158 104.711 88.2166L107.192 87.9119ZM108.194 86.6303C108.198 86.6298 108.202 86.6294 108.206 86.6289L107.927 84.1445C107.914 84.1459 107.902 84.1474 107.889 84.149L108.194 86.6303ZM108.206 86.6289L114.036 85.9749L113.757 83.4905L107.927 84.1445L108.206 86.6289ZM118.75 85.4461L124.254 84.8287L123.976 82.3443L118.471 82.9617L118.75 85.4461Z" fill="#925FE2"/>
<path fill-rule="evenodd" clip-rule="evenodd" d="M181.368 81.9232L191.471 155.704L192.38 163.106C192.673 165.49 191 167.658 188.644 167.947L125.714 175.674C123.357 175.963 121.21 174.265 120.917 171.88L111.088 91.8313C110.954 90.735 111.733 89.7371 112.83 89.6025L121.012 88.5978" fill="#925FE2" fill-opacity="0.2"/>
<path d="M132.006 61.25H187.806C188.535 61.25 189.234 61.5395 189.75 62.0549L206.35 78.6452C206.866 79.161 207.156 79.8608 207.156 80.5904V156.8C207.156 158.319 205.925 159.55 204.406 159.55H132.006C130.488 159.55 129.256 158.319 129.256 156.8V64C129.256 62.4812 130.488 61.25 132.006 61.25Z" fill="white" stroke="#925FE2" stroke-width="2.5"/>
<path d="M188.006 62.8833V76.7999C188.006 78.7881 189.618 80.3999 191.606 80.3999H201.127" stroke="#925FE2" stroke-width="2.5" stroke-linecap="round" stroke-linejoin="round"/>
<path d="M141.6 141.6H172.8M141.6 80.3999H172.8H141.6ZM141.6 94.7999H193.2H141.6ZM141.6 110.4H193.2H141.6ZM141.6 126H193.2H141.6Z" stroke="#925FE2" stroke-width="2.5" stroke-linecap="round" stroke-linejoin="round"/>
</svg>
