<svg width="22" height="22" viewBox="0 0 22 22" fill="none" xmlns="http://www.w3.org/2000/svg">
<path d="M11 0.166748C5.02 0.166748 0.166672 5.02008 0.166672 11.0001C0.166672 16.9801 5.02 21.8334 11 21.8334C16.98 21.8334 21.8333 16.9801 21.8333 11.0001C21.8333 5.02008 16.98 0.166748 11 0.166748ZM11 4.50008C13.0908 4.50008 14.7917 6.20091 14.7917 8.29175C14.7917 10.3826 13.0908 12.0834 11 12.0834C8.90917 12.0834 7.20834 10.3826 7.20834 8.29175C7.20834 6.20091 8.90917 4.50008 11 4.50008ZM11 19.6667C8.80084 19.6667 6.20084 18.7784 4.34834 16.5467C6.17917 15.1167 8.48667 14.2501 11 14.2501C13.5133 14.2501 15.8208 15.1167 17.6517 16.5467C15.7992 18.7784 13.1992 19.6667 11 19.6667Z" fill="white"/>
</svg>
