<svg width="26" height="26" viewBox="0 0 26 26" fill="none" xmlns="http://www.w3.org/2000/svg">
<path d="M12.9457 19.5001C13.3248 19.5001 13.6455 19.369 13.9077 19.1068C14.1698 18.8447 14.3006 18.5244 14.2998 18.1459C14.2991 17.7675 14.1684 17.4468 13.9077 17.1839C13.6469 16.921 13.3263 16.7903 12.9457 16.7917C12.5651 16.7932 12.2448 16.9243 11.9848 17.185C11.7248 17.4457 11.5937 17.766 11.5915 18.1459C11.5893 18.5258 11.7204 18.8465 11.9848 19.1079C12.2491 19.3694 12.5694 19.5001 12.9457 19.5001ZM12.9998 23.8334C11.5012 23.8334 10.0929 23.5489 8.77484 22.9797C7.45678 22.4106 6.31026 21.6389 5.33526 20.6647C4.36026 19.6904 3.58856 18.5439 3.02017 17.2251C2.45178 15.9063 2.16723 14.498 2.16651 13.0001C2.16578 11.5022 2.45034 10.0939 3.02017 8.77508C3.59001 7.4563 4.3617 6.30978 5.33526 5.3355C6.30881 4.36122 7.45534 3.58953 8.77484 3.02041C10.0943 2.4513 11.5027 2.16675 12.9998 2.16675C14.497 2.16675 15.9053 2.4513 17.2248 3.02041C18.5443 3.58953 19.6909 4.36122 20.6644 5.3355C21.638 6.30978 22.41 7.4563 22.9806 8.77508C23.5511 10.0939 23.8353 11.5022 23.8332 13.0001C23.831 14.498 23.5465 15.9063 22.9795 17.2251C22.4126 18.5439 21.6409 19.6904 20.6644 20.6647C19.688 21.6389 18.5415 22.411 17.2248 22.9808C15.9082 23.5507 14.4999 23.8349 12.9998 23.8334ZM13.1082 8.34175C13.5596 8.34175 13.9524 8.48619 14.2868 8.77508C14.6212 9.06397 14.7881 9.42508 14.7873 9.85842C14.7873 10.2556 14.6656 10.6077 14.4223 10.9147C14.1789 11.2216 13.9033 11.5105 13.5957 11.7813C13.1804 12.1424 12.8149 12.5397 12.4993 12.973C12.1837 13.4063 12.0256 13.8938 12.0248 14.4355C12.0248 14.6883 12.1198 14.9006 12.3098 15.0725C12.4997 15.2444 12.7207 15.33 12.9728 15.3292C13.2436 15.3292 13.474 15.239 13.6639 15.0584C13.8539 14.8779 13.9756 14.6522 14.029 14.3813C14.1012 14.0022 14.2637 13.6638 14.5165 13.3662C14.7693 13.0687 15.0401 12.7841 15.329 12.5126C15.7443 12.1154 16.1011 11.682 16.3993 11.2126C16.6976 10.7431 16.8464 10.2195 16.8457 9.64175C16.8457 8.72091 16.4712 7.96728 15.7223 7.38083C14.9733 6.79439 14.102 6.5008 13.1082 6.50008C12.4221 6.50008 11.7677 6.64453 11.1452 6.93341C10.5226 7.2223 10.0485 7.66466 9.72276 8.2605C9.59637 8.47716 9.55592 8.70755 9.60142 8.95166C9.64692 9.19578 9.76862 9.38066 9.96651 9.50633C10.2193 9.65078 10.4811 9.69591 10.7519 9.64175C11.0228 9.58758 11.2485 9.43411 11.429 9.18133C11.6276 8.9105 11.8761 8.70286 12.1743 8.55841C12.4726 8.41397 12.7839 8.34175 13.1082 8.34175Z" fill="white"/>
</svg>
