<svg width="26" height="26" viewBox="0 0 26 26" fill="none" xmlns="http://www.w3.org/2000/svg">
<path d="M12.9998 18.4167C13.3068 18.4167 13.5643 18.3127 13.7723 18.1047C13.9803 17.8967 14.0839 17.6396 14.0832 17.3334V13.0001C14.0832 12.6931 13.9792 12.436 13.7712 12.2287C13.5632 12.0215 13.3061 11.9175 12.9998 11.9167C12.6936 11.916 12.4365 12.02 12.2285 12.2287C12.0205 12.4375 11.9165 12.6946 11.9165 13.0001V17.3334C11.9165 17.6404 12.0205 17.8978 12.2285 18.1058C12.4365 18.3138 12.6936 18.4175 12.9998 18.4167ZM12.9998 9.75008C13.3068 9.75008 13.5643 9.64608 13.7723 9.43808C13.9803 9.23008 14.0839 8.97297 14.0832 8.66675C14.0824 8.36053 13.9784 8.10342 13.7712 7.89541C13.5639 7.68742 13.3068 7.58342 12.9998 7.58342C12.6929 7.58342 12.4358 7.68742 12.2285 7.89541C12.0212 8.10342 11.9172 8.36053 11.9165 8.66675C11.9158 8.97297 12.0198 9.23044 12.2285 9.43917C12.4372 9.64789 12.6943 9.75153 12.9998 9.75008ZM12.9998 23.8334C11.5012 23.8334 10.0929 23.5489 8.77484 22.9797C7.45678 22.4106 6.31026 21.6389 5.33526 20.6647C4.36026 19.6904 3.58856 18.5439 3.02017 17.2251C2.45178 15.9063 2.16723 14.498 2.16651 13.0001C2.16578 11.5022 2.45034 10.0939 3.02017 8.77508C3.59001 7.4563 4.3617 6.30978 5.33526 5.3355C6.30881 4.36122 7.45534 3.58953 8.77484 3.02041C10.0943 2.4513 11.5027 2.16675 12.9998 2.16675C14.497 2.16675 15.9053 2.4513 17.2248 3.02041C18.5443 3.58953 19.6909 4.36122 20.6644 5.3355C21.638 6.30978 22.41 7.4563 22.9806 8.77508C23.5511 10.0939 23.8353 11.5022 23.8332 13.0001C23.831 14.498 23.5465 15.9063 22.9795 17.2251C22.4126 18.5439 21.6409 19.6904 20.6644 20.6647C19.688 21.6389 18.5415 22.411 17.2248 22.9808C15.9082 23.5507 14.4999 23.8349 12.9998 23.8334Z" fill="white"/>
</svg>
