<svg width="8" height="10" viewBox="0 0 8 10" fill="none" xmlns="http://www.w3.org/2000/svg">
<path d="M5.58484 5.00071L0.294236 1.22101C0.10578 1.08653 0 0.90467 0 0.715067C0 0.525465 0.10578 0.343512 0.294236 0.209032C0.386728 0.14279 0.49681 0.0902395 0.618128 0.0543537C0.739447 0.0184679 0.869592 0 1.00104 0C1.13249 0 1.26263 0.0184679 1.38395 0.0543537C1.50527 0.0902395 1.61536 0.14279 1.70785 0.209032L7.70576 4.49405C7.89422 4.62853 8 4.8104 8 5C8 5.1896 7.89422 5.37147 7.70576 5.50595L1.70785 9.79097C1.61536 9.85721 1.50527 9.90976 1.38395 9.94565C1.26263 9.98153 1.13249 10 1.00104 10C0.869592 10 0.739447 9.98153 0.618128 9.94565C0.49681 9.90976 0.386728 9.85721 0.294236 9.79097C0.106027 9.6564 0.000419892 9.47448 0.000419892 9.28493C0.000419892 9.09539 0.106027 8.91356 0.294236 8.77899L5.58484 5.00071Z" fill="#925FE2"/>
</svg>
