<svg width="26" height="26" viewBox="0 0 26 26" fill="none" xmlns="http://www.w3.org/2000/svg">
<g clip-path="url(#clip0_20_519)">
<path d="M13 23.8334C14.1917 23.8334 15.1667 22.8584 15.1667 21.6667H10.8333C10.8333 22.8584 11.8083 23.8334 13 23.8334Z" fill="white"/>
<path d="M9.75001 20.5834H16.25C16.8458 20.5834 17.3333 20.0959 17.3333 19.5001C17.3333 18.9042 16.8458 18.4167 16.25 18.4167H9.75001C9.15417 18.4167 8.66667 18.9042 8.66667 19.5001C8.66667 20.0959 9.15417 20.5834 9.75001 20.5834Z" fill="white"/>
<path d="M13 2.16675C8.515 2.16675 4.875 5.80675 4.875 10.2917C4.875 14.4301 7.75667 16.6401 8.95917 17.3334H17.0408C18.2433 16.6401 21.125 14.4301 21.125 10.2917C21.125 5.80675 17.485 2.16675 13 2.16675Z" fill="white"/>
</g>
<defs>
<clipPath id="clip0_20_519">
<rect width="26" height="26" fill="white"/>
</clipPath>
</defs>
</svg>
