<svg width="26" height="26" viewBox="0 0 26 26" fill="none" xmlns="http://www.w3.org/2000/svg">
<path d="M6.50016 8.66659H16.2502V6.49992C16.2502 5.59714 15.9342 4.82978 15.3022 4.19784C14.6703 3.56589 13.9029 3.24992 13.0002 3.24992C12.0974 3.24992 11.33 3.56589 10.6981 4.19784C10.0661 4.82978 9.75016 5.59714 9.75016 6.49992H7.5835C7.5835 5.00131 8.1118 3.72406 9.16841 2.66817C10.225 1.61228 11.5023 1.08397 13.0002 1.08325C14.4981 1.08253 15.7757 1.61084 16.833 2.66817C17.8903 3.7255 18.4183 5.00275 18.4168 6.49992V8.66659H19.5002C20.096 8.66659 20.6062 8.87892 21.0309 9.30359C21.4556 9.72825 21.6676 10.2381 21.6668 10.8333V21.6666C21.6668 22.2624 21.4549 22.7727 21.0309 23.1973C20.607 23.622 20.0967 23.834 19.5002 23.8333H6.50016C5.90433 23.8333 5.39444 23.6213 4.9705 23.1973C4.54655 22.7734 4.33422 22.2631 4.3335 21.6666V10.8333C4.3335 10.2374 4.54583 9.72753 4.9705 9.30359C5.39516 8.87964 5.90505 8.66731 6.50016 8.66659ZM13.0002 18.4166C13.596 18.4166 14.1062 18.2046 14.5309 17.7807C14.9556 17.3567 15.1676 16.8465 15.1668 16.2499C15.1661 15.6534 14.9541 15.1435 14.5309 14.7203C14.1077 14.297 13.5974 14.0847 13.0002 14.0833C12.4029 14.0818 11.893 14.2941 11.4705 14.7203C11.048 15.1464 10.8357 15.6563 10.8335 16.2499C10.8313 16.8436 11.0437 17.3538 11.4705 17.7807C11.8973 18.2075 12.4072 18.4195 13.0002 18.4166Z" fill="white"/>
</svg>
