<svg width="213" height="247" viewBox="0 0 213 247" fill="none" xmlns="http://www.w3.org/2000/svg">
<mask id="mask0_456_886" style="mask-type:luminance" maskUnits="userSpaceOnUse" x="45" y="104" width="168" height="143">
<path d="M45.3334 104H212.5V246.068H45.3334V104Z" fill="white"/>
</mask>
<g mask="url(#mask0_456_886)">
<path d="M203.271 104.359C203.823 105.49 204.349 106.714 204.859 107.917C207.984 115.302 210.177 122.948 211.432 130.802C212.271 136.016 212.688 141.313 212.688 146.677C212.688 160.115 210.052 173.156 204.859 185.443C199.839 197.302 192.662 207.953 183.521 217.099C174.38 226.24 163.729 233.422 151.87 238.438C139.583 243.635 126.542 246.276 113.104 246.276C99.6667 246.276 86.6198 243.661 74.3334 238.464C63.6771 233.953 53.9948 227.755 45.5052 219.875H113.099C153.422 219.875 186.229 187.005 186.229 146.682C186.229 141.234 185.625 135.896 184.49 130.745H113.109V130.797C104.224 130.802 97.1407 137.995 97.1407 146.776C97.1407 155.557 104.292 162.76 113.099 162.76H152.417C150.313 167.906 147.167 172.661 143.089 176.74C135.078 184.745 124.427 189.104 113.099 189.104C101.771 189.104 91.1198 184.703 83.1094 176.708C75.099 168.703 70.6823 158.057 70.6823 146.724C70.6823 135.391 75.099 124.745 83.1198 116.74C91.1302 108.745 101.781 104.359 113.109 104.359H203.271Z" fill="#BE9EFF"/>
</g>
<mask id="mask1_456_886" style="mask-type:luminance" maskUnits="userSpaceOnUse" x="13" y="47" width="169" height="143">
<path d="M13.5 47.0664H181.333V189.332H13.5V47.0664Z" fill="white"/>
</mask>
<g mask="url(#mask1_456_886)">
<path d="M13.5209 146.676C13.5209 133.243 16.1563 120.186 21.3542 107.9C26.3698 96.0404 33.5469 85.3893 42.6875 76.2487C51.8282 67.1081 62.4792 59.9258 74.3386 54.9049C86.625 49.7122 99.6719 47.0664 113.109 47.0664C126.542 47.0664 139.589 49.6862 151.875 54.8841C162.537 59.3893 172.219 65.5872 180.708 73.4727H113.109C72.7813 73.4727 39.9792 106.332 39.9792 146.66C39.9792 162.467 45.0209 177.082 53.5834 189.15H22.9948C22.4271 187.863 21.875 186.697 21.3542 185.462C16.1563 173.171 13.5209 160.118 13.5209 146.676Z" fill="#925FE2"/>
</g>
<mask id="mask2_456_886" style="mask-type:luminance" maskUnits="userSpaceOnUse" x="0" y="0" width="170" height="102">
<path d="M0 0H169.333V101.333H0V0Z" fill="white"/>
</mask>
<g mask="url(#mask2_456_886)">
<mask id="mask3_456_886" style="mask-type:luminance" maskUnits="userSpaceOnUse" x="-6" y="-9" width="176" height="137">
<path d="M10.6146 -8.34961L169.865 15.3171L153.25 127.093L-6 103.421L10.6146 -8.34961Z" fill="white"/>
</mask>
<g mask="url(#mask3_456_886)">
<mask id="mask4_456_886" style="mask-type:luminance" maskUnits="userSpaceOnUse" x="-19" y="-9" width="189" height="223">
<path d="M10.6146 -8.34961L169.865 15.3171L140.458 213.145L-18.7916 189.473L10.6146 -8.34961Z" fill="white"/>
</mask>
<g mask="url(#mask4_456_886)">
<path fill-rule="evenodd" clip-rule="evenodd" d="M0.213623 61.8646L19.6772 67.3281L10.5626 98.8385L20.0834 100.172L24.797 68.849L32.8178 71.026C33.4428 74.1979 34.9011 79.7031 36.8438 82.4948C43.0678 76.1563 45.7553 65.5833 66.172 53.625C84.0886 43.1302 106.932 40.1146 127.662 46.0677C133.615 47.776 137.948 50.2708 143.016 51.9792L141.354 43.125L161.698 28.9948C163.292 28.0104 163.641 27.7917 165.146 26.5573L168.052 23.8854L73.422 0.984375C69.9428 5.19271 43.7188 25.5885 36.974 31.5573L0.213623 61.8646Z" fill="#BE9EFF"/>
</g>
</g>
</g>
<mask id="mask5_456_886" style="mask-type:luminance" maskUnits="userSpaceOnUse" x="26" y="46" width="133" height="82">
<path d="M26.6667 46.666H158.667V127.999H26.6667V46.666Z" fill="white"/>
</mask>
<g mask="url(#mask5_456_886)">
<mask id="mask6_456_886" style="mask-type:luminance" maskUnits="userSpaceOnUse" x="-6" y="-9" width="176" height="137">
<path d="M10.6147 -8.34961L169.865 15.3171L153.25 127.093L-5.99988 103.421L10.6147 -8.34961Z" fill="white"/>
</mask>
<g mask="url(#mask6_456_886)">
<mask id="mask7_456_886" style="mask-type:luminance" maskUnits="userSpaceOnUse" x="-19" y="-9" width="189" height="223">
<path d="M10.6147 -8.34961L169.865 15.3171L140.459 213.145L-18.7915 189.473L10.6147 -8.34961Z" fill="white"/>
</mask>
<g mask="url(#mask7_456_886)">
<path fill-rule="evenodd" clip-rule="evenodd" d="M109.292 193.462C65.5574 187.494 35.4272 143.249 53.1199 98.1916C64.9116 68.1655 95.9324 51.6499 126.016 55.0093C144.177 57.0405 147.521 62.3114 157.365 66.478L155.927 64.8322C155.813 64.7176 155.672 64.5926 155.552 64.4884C154.886 63.8791 154.281 63.478 153.625 62.9989C94.823 20.4051 11.5782 73.2541 29.5834 146.811C35.4324 170.702 52.1095 190.509 74.698 200.384C85.0418 204.91 84.2189 204.535 93.7553 201.056C97.0886 199.843 107.771 195.561 109.292 193.462Z" fill="#925FE2"/>
</g>
</g>
</g>
</svg>
