<svg width="24" height="24" viewBox="0 0 24 24" fill="none" xmlns="http://www.w3.org/2000/svg">
<rect width="23.8017" height="24" fill="black"/>
<path d="M16.6611 2H14.0826C10.909 2 8.92554 4 8.92554 7.2V11.25H15.1239C15.5305 11.25 15.8677 11.59 15.8677 12C15.8677 12.41 15.5305 12.75 15.1239 12.75H8.92554V16.8C8.92554 20 10.909 22 14.0826 22H16.6512C19.8247 22 21.8082 20 21.8082 16.8V7.2C21.8181 4 19.8346 2 16.6611 2Z" fill="white" fill-opacity="0.8"/>
<path d="M4.5222 11.25L6.5751 9.18003C6.72386 9.03003 6.79328 8.84003 6.79328 8.65003C6.79328 8.46003 6.72386 8.26003 6.5751 8.12003C6.28749 7.83003 5.81146 7.83003 5.52386 8.12003L2.20154 11.47C1.91394 11.76 1.91394 12.24 2.20154 12.53L5.52386 15.88C5.81146 16.17 6.28749 16.17 6.5751 15.88C6.8627 15.59 6.8627 15.11 6.5751 14.82L4.5222 12.75H8.92551V11.25H4.5222Z" fill="white" fill-opacity="0.8"/>
</svg>
