<svg width="27" height="27" viewBox="0 0 27 27" fill="none" xmlns="http://www.w3.org/2000/svg">
<path d="M11.8125 6.75C11.8125 6.51375 11.8125 6.39731 11.826 6.29944C11.869 5.99013 12.0117 5.70329 12.2325 5.48248C12.4533 5.26167 12.7401 5.11895 13.0494 5.076C13.1456 5.0625 13.2637 5.0625 13.5 5.0625C13.7363 5.0625 13.8527 5.0625 13.9506 5.076C14.2599 5.11895 14.5467 5.26167 14.7675 5.48248C14.9883 5.70329 15.131 5.99013 15.174 6.29944C15.1875 6.39563 15.1875 6.51375 15.1875 6.75C15.1875 6.98625 15.1875 7.10269 15.174 7.20056C15.131 7.50987 14.9883 7.79671 14.7675 8.01752C14.5467 8.23833 14.2599 8.38105 13.9506 8.424C13.8544 8.4375 13.7363 8.4375 13.5 8.4375C13.2637 8.4375 13.1473 8.4375 13.0494 8.424C12.7401 8.38105 12.4533 8.23833 12.2325 8.01752C12.0117 7.79671 11.869 7.50987 11.826 7.20056C11.8125 7.10438 11.8125 6.98625 11.8125 6.75ZM11.8125 13.5C11.8125 13.2638 11.8125 13.1473 11.826 13.0494C11.869 12.7401 12.0117 12.4533 12.2325 12.2325C12.4533 12.0117 12.7401 11.869 13.0494 11.826C13.1456 11.8125 13.2637 11.8125 13.5 11.8125C13.7363 11.8125 13.8527 11.8125 13.9506 11.826C14.2599 11.869 14.5467 12.0117 14.7675 12.2325C14.9883 12.4533 15.131 12.7401 15.174 13.0494C15.1875 13.1456 15.1875 13.2638 15.1875 13.5C15.1875 13.7362 15.1875 13.8527 15.174 13.9506C15.131 14.2599 14.9883 14.5467 14.7675 14.7675C14.5467 14.9883 14.2599 15.131 13.9506 15.174C13.8544 15.1875 13.7363 15.1875 13.5 15.1875C13.2637 15.1875 13.1473 15.1875 13.0494 15.174C12.7401 15.131 12.4533 14.9883 12.2325 14.7675C12.0117 14.5467 11.869 14.2599 11.826 13.9506C11.8125 13.8544 11.8125 13.7362 11.8125 13.5ZM11.8125 20.25C11.8125 20.0154 11.8125 19.8973 11.826 19.7994C11.8692 19.4907 12.0118 19.2044 12.2323 18.984C12.4527 18.7635 12.739 18.6209 13.0477 18.5777C13.1473 18.5642 13.2638 18.5642 13.4983 18.5642C13.7329 18.5642 13.8527 18.5642 13.9489 18.5777C14.2576 18.6209 14.5439 18.7635 14.7643 18.984C14.9848 19.2044 15.1274 19.4907 15.1706 19.7994C15.1841 19.8973 15.1841 20.0154 15.1841 20.25C15.1841 20.4846 15.1841 20.6027 15.1706 20.7006C15.1274 21.0093 14.9848 21.2956 14.7643 21.516C14.5439 21.7365 14.2576 21.8791 13.9489 21.9223C13.851 21.9358 13.7329 21.9358 13.4983 21.9358C13.2638 21.9358 13.1456 21.9358 13.0477 21.9223C12.739 21.8791 12.4527 21.7365 12.2323 21.516C12.0118 21.2956 11.8692 21.0093 11.826 20.7006C11.8125 20.6027 11.8125 20.4846 11.8125 20.25Z" fill="black"/>
</svg>
