<svg width="24" height="24" viewBox="0 0 24 24" fill="none" xmlns="http://www.w3.org/2000/svg">
<path d="M6.699 2.25C5.859 2.25 5.153 2.25 4.593 2.325C3.999 2.405 3.456 2.582 3.019 3.019C2.582 3.456 2.405 3.999 2.325 4.593C2.25 5.153 2.25 5.859 2.25 6.699V6.8C2.25 7.64 2.25 8.346 2.325 8.906C2.405 9.5 2.582 10.043 3.019 10.48C3.456 10.917 3.999 11.094 4.593 11.174C5.153 11.249 5.859 11.249 6.699 11.249H6.8C7.64 11.249 8.346 11.249 8.906 11.174C9.5 11.094 10.043 10.917 10.48 10.48C10.917 10.043 11.094 9.5 11.174 8.906C11.249 8.346 11.249 7.64 11.249 6.8V6.7C11.249 5.86 11.249 5.154 11.174 4.594C11.094 4 10.917 3.457 10.48 3.02C10.043 2.583 9.5 2.406 8.906 2.326C8.346 2.251 7.64 2.251 6.8 2.251L6.699 2.25ZM17.199 2.25C16.359 2.25 15.653 2.25 15.093 2.325C14.499 2.405 13.956 2.582 13.519 3.019C13.082 3.456 12.905 3.999 12.825 4.593C12.75 5.153 12.75 5.859 12.75 6.699V6.8C12.75 7.64 12.75 8.346 12.825 8.906C12.905 9.5 13.082 10.043 13.519 10.48C13.956 10.917 14.499 11.094 15.093 11.174C15.653 11.249 16.359 11.249 17.199 11.249H17.301C18.141 11.249 18.847 11.249 19.407 11.174C20.001 11.094 20.544 10.917 20.981 10.48C21.418 10.043 21.595 9.5 21.675 8.906C21.75 8.346 21.75 7.64 21.75 6.8V6.7C21.75 5.86 21.75 5.154 21.675 4.594C21.595 4 21.418 3.457 20.981 3.02C20.544 2.583 20.001 2.406 19.407 2.326C18.847 2.251 18.142 2.251 17.302 2.251L17.199 2.25ZM6.699 12.757C5.859 12.757 5.153 12.757 4.593 12.832C3.999 12.912 3.456 13.089 3.019 13.526C2.582 13.963 2.405 14.506 2.325 15.1C2.25 15.66 2.25 16.366 2.25 17.206V17.308C2.25 18.148 2.25 18.854 2.325 19.414C2.405 20.008 2.582 20.551 3.019 20.988C3.456 21.425 3.999 21.602 4.593 21.682C5.153 21.757 5.859 21.757 6.699 21.757H6.8C7.64 21.757 8.346 21.757 8.906 21.682C9.5 21.602 10.043 21.425 10.48 20.988C10.917 20.551 11.094 20.008 11.174 19.414C11.249 18.854 11.249 18.148 11.249 17.308V17.206C11.249 16.366 11.249 15.661 11.174 15.1C11.094 14.506 10.917 13.963 10.48 13.526C10.043 13.089 9.5 12.912 8.906 12.832C8.346 12.757 7.64 12.757 6.8 12.757H6.699ZM17.199 12.757C16.359 12.757 15.653 12.757 15.093 12.832C14.499 12.912 13.956 13.089 13.519 13.526C13.082 13.963 12.905 14.506 12.825 15.1C12.75 15.66 12.75 16.366 12.75 17.206V17.308C12.75 18.148 12.75 18.854 12.825 19.414C12.905 20.008 13.082 20.551 13.519 20.988C13.956 21.425 14.499 21.602 15.093 21.682C15.653 21.757 16.359 21.757 17.199 21.757H17.301C18.141 21.757 18.847 21.757 19.407 21.682C20.001 21.602 20.544 21.425 20.981 20.988C21.418 20.551 21.595 20.008 21.675 19.414C21.75 18.854 21.75 18.148 21.75 17.308V17.206C21.75 16.366 21.75 15.661 21.675 15.1C21.595 14.506 21.418 13.963 20.981 13.526C20.544 13.089 20.001 12.912 19.407 12.832C18.847 12.757 18.141 12.757 17.302 12.757H17.199Z" fill="white"/>
</svg>
