<svg width="180" height="190" viewBox="0 0 180 190" fill="none" xmlns="http://www.w3.org/2000/svg">
<path d="M58.1914 185.323C70.8651 193.286 79.9066 189.98 83.368 183.595C90.0619 171.247 112.319 145.997 147.59 137.462C194.304 126.159 184.548 96.1465 155.831 80.3974C127.114 64.6482 105.642 42.8563 108.892 19.1615C112.141 -4.53329 79.9418 -12.7016 65.6222 32.8792C56.3685 62.3352 39.7853 70.2266 29.2106 72.1236C19.244 73.9113 8.34188 76.1545 3.02547 85.1215C-3.42565 96.0017 -1.17452 107.008 25.8349 114.556C64.1098 125.253 29.7839 167.475 58.1914 185.323Z" fill="#FF8500" fill-opacity="0.2"/>
<path d="M25.2622 133.695C25.7985 133.375 31.8522 130.704 61.9681 145.338C61.8803 145.463 61.843 145.522 61.843 145.522C61.843 145.522 30.5347 156.512 24.4004 142.973C22.5686 138.942 23.0935 136.166 25.2099 133.726L25.2622 133.695Z" fill="#FF8500" fill-opacity="0.8"/>
<path d="M126.484 139.233C119.941 144.967 109.68 149.128 99.7795 143.594C101.344 142.552 102.96 141.479 104.608 140.369C114.551 133.71 123.309 138.165 126.484 139.233Z" fill="#FF8500" fill-opacity="0.8"/>
<path d="M138.204 68.717C144.889 126.739 129.003 137.269 127.234 138.868C126.722 139.332 126.515 139.298 125.74 139.09L125.727 139.098C122.451 138.192 114.551 133.709 104.608 140.368C102.96 141.478 101.344 142.551 99.7796 143.593C89.6364 150.299 81.4454 155.024 75.5443 152.282C70.5389 149.62 66.0257 147.317 61.9683 145.338C31.8525 130.704 25.7988 133.375 25.2625 133.695C25.8848 133.342 31.5939 130.043 39.2811 124.242C39.3073 124.227 39.3334 124.211 39.339 124.19C49.6141 116.428 63.3744 104.196 73.2653 88.4618C79.9987 77.7623 86.5858 50.638 99.2954 45.316C125.416 35.159 137.12 56.9151 138.204 68.717Z" fill="#FF8500" fill-opacity="0.8"/>
<path d="M109.322 67.6995C110.133 65.4678 110.054 63.3681 109.145 63.0095C108.237 62.651 106.843 64.1694 106.033 66.4011C105.222 68.6328 105.301 70.7326 106.209 71.0911C107.117 71.4496 108.511 69.9312 109.322 67.6995Z" fill="white"/>
<path d="M125.953 70.5467C126.528 68.2368 126.232 66.1582 125.292 65.9041C124.351 65.6499 123.123 67.3166 122.549 69.6265C121.974 71.9365 122.27 74.0151 123.211 74.2692C124.151 74.5233 125.379 72.8567 125.953 70.5467Z" fill="white"/>
<path d="M115.83 79.0283C115.693 79.0282 115.561 78.9795 115.455 78.8903C115.349 78.8012 115.276 78.6769 115.247 78.5381C115.14 78.0357 114.667 76.5491 113.916 76.3281C113.165 76.1071 111.691 76.965 111.095 77.415C110.967 77.5118 110.807 77.5516 110.651 77.5255C110.494 77.4994 110.354 77.4096 110.261 77.2759C110.169 77.1422 110.13 76.9755 110.155 76.8125C110.18 76.6495 110.267 76.5035 110.395 76.4066C110.63 76.2294 112.733 74.6869 114.24 75.1299C115.811 75.592 116.357 78.0002 116.413 78.2733C116.432 78.3642 116.432 78.4585 116.411 78.549C116.391 78.6396 116.351 78.7242 116.295 78.7966C116.239 78.8691 116.168 78.9275 116.087 78.9676C116.007 79.0077 115.919 79.0284 115.829 79.0283H115.83Z" fill="white"/>
</svg>