<svg width="17" height="22" viewBox="0 0 17 22" fill="none" xmlns="http://www.w3.org/2000/svg">
<path d="M8.15076 21.125C9.33258 21.125 10.2995 20.15 10.2995 18.9583H6.002C6.002 20.15 6.9582 21.125 8.15076 21.125ZM14.597 14.625V9.20833C14.597 5.8825 12.8351 3.09833 9.76233 2.36167V1.625C9.76233 0.725833 9.0425 0 8.15076 0C7.25903 0 6.53919 0.725833 6.53919 1.625V2.36167C3.45572 3.09833 1.70448 5.87167 1.70448 9.20833V14.625L0.318529 16.0225C-0.35833 16.705 0.114397 17.875 1.0706 17.875H15.2202C16.1764 17.875 16.6599 16.705 15.983 16.0225L14.597 14.625Z" fill="black"/>
</svg>
