<svg width="26" height="26" viewBox="0 0 26 26" fill="none" xmlns="http://www.w3.org/2000/svg">
<g clip-path="url(#clip0_20_470)">
<path d="M13 23.8333C14.1917 23.8333 15.1667 22.8583 15.1667 21.6666H10.8333C10.8333 22.8583 11.7975 23.8333 13 23.8333ZM19.5 17.3333V11.9166C19.5 8.59075 17.7233 5.80659 14.625 5.06992V4.33325C14.625 3.43409 13.8992 2.70825 13 2.70825C12.1008 2.70825 11.375 3.43409 11.375 4.33325V5.06992C8.26583 5.80659 6.49999 8.57992 6.49999 11.9166V17.3333L5.10249 18.7308C4.41999 19.4133 4.89666 20.5833 5.86083 20.5833H20.1283C21.0925 20.5833 21.58 19.4133 20.8975 18.7308L19.5 17.3333Z" fill="white"/>
</g>
<defs>
<clipPath id="clip0_20_470">
<rect width="26" height="26" fill="white"/>
</clipPath>
</defs>
</svg>
