<svg width="24" height="24" viewBox="0 0 24 24" fill="none" xmlns="http://www.w3.org/2000/svg">
<path d="M15.414 1H3V23H13.846C12.6096 21.9758 11.796 20.5302 11.562 18.9419C11.328 17.3535 11.6901 15.7347 12.5785 14.3975C13.467 13.0602 14.8189 12.099 16.3739 11.6992C17.9288 11.2994 19.5767 11.4892 21 12.232V6.586L15.414 1ZM14.5 7.5V3L19 7.5H14.5Z" fill="black"/>
<path d="M18.9999 12.75V14.126C19.7149 14.31 20.3519 14.686 20.8539 15.198L22.0459 14.509L23.0459 16.241L21.8549 16.929C22.0496 17.6297 22.0496 18.3703 21.8549 19.071L23.0459 19.759L22.0459 21.491L20.8539 20.802C20.3448 21.3212 19.7038 21.6918 18.9999 21.874V23.25H16.9999V21.874C16.2959 21.6918 15.655 21.3212 15.1459 20.802L13.9529 21.491L12.9529 19.759L14.1449 19.071C13.9502 18.3703 13.9502 17.6297 14.1449 16.929L12.9529 16.241L13.9529 14.509L15.1459 15.197C15.6552 14.6785 16.2961 14.3086 16.9999 14.127V12.75H18.9999ZM16.2489 17.033C16.0851 17.329 15.9991 17.6617 15.9989 18C15.9989 18.35 16.0899 18.68 16.2489 18.967L16.2849 19.03C16.4626 19.3262 16.7139 19.5713 17.0145 19.7414C17.315 19.9116 17.6545 20.001 17.9999 20.001C18.3453 20.001 18.6847 19.9116 18.9853 19.7414C19.2858 19.5713 19.5372 19.3262 19.7149 19.03L19.7509 18.967C19.9143 18.6709 20 18.3382 19.9999 18C19.9999 17.65 19.9099 17.32 19.7509 17.033L19.7139 16.97C19.5361 16.6741 19.2848 16.4292 18.9844 16.2592C18.6839 16.0892 18.3446 15.9998 17.9994 15.9998C17.6542 15.9998 17.3148 16.0892 17.0144 16.2592C16.714 16.4292 16.4626 16.6741 16.2849 16.97L16.2489 17.033Z" fill="black"/>
</svg>
