<svg width="23" height="24" viewBox="0 0 23 24" fill="none" xmlns="http://www.w3.org/2000/svg">
<path d="M11.0193 0C4.93664 0 0 5.31387 0 11.8613C0 18.4088 4.93664 23.7226 11.0193 23.7226C17.1019 23.7226 22.0386 18.4088 22.0386 11.8613C22.0386 5.31387 17.1019 0 11.0193 0ZM11.0193 4.74453C13.146 4.74453 14.876 6.60675 14.876 8.89599C14.876 11.1852 13.146 13.0474 11.0193 13.0474C8.89256 13.0474 7.16253 11.1852 7.16253 8.89599C7.16253 6.60675 8.89256 4.74453 11.0193 4.74453ZM11.0193 21.3504C8.78237 21.3504 6.13774 20.3777 4.25344 17.9343C6.1157 16.3686 8.46281 15.4197 11.0193 15.4197C13.5758 15.4197 15.9229 16.3686 17.7851 17.9343C15.9008 20.3777 13.2562 21.3504 11.0193 21.3504Z" fill="black"/>
</svg>
