<svg width="33" height="33" viewBox="0 0 33 33" fill="none" xmlns="http://www.w3.org/2000/svg">
<g clip-path="url(#clip0_20_571)">
<path d="M23.3001 13.482C25.8305 13.482 27.8819 11.4306 27.8819 8.90018C27.8819 6.36971 25.8305 4.31836 23.3001 4.31836C20.7696 4.31836 18.7183 6.36971 18.7183 8.90018C18.7183 11.4306 20.7696 13.482 23.3001 13.482Z" fill="#925FE2"/>
<path d="M23.3 15.2001C26.7794 15.2001 29.6 12.3795 29.6 8.9001C29.6 5.4207 26.7794 2.6001 23.3 2.6001C19.8206 2.6001 17 5.4207 17 8.9001C17 12.3795 19.8206 15.2001 23.3 15.2001Z" fill="#925FE2" stroke="white" stroke-width="3" stroke-linejoin="round"/>
<path d="M26.1182 23.4932L24.425 21.8V15.2375C24.425 11.2082 22.2725 7.83505 18.5188 6.94255V6.05005C18.5188 4.96067 17.6394 4.0813 16.55 4.0813C15.4606 4.0813 14.5813 4.96067 14.5813 6.05005V6.94255C10.8144 7.83505 8.67502 11.195 8.67502 15.2375V21.8L6.9819 23.4932C6.15502 24.3201 6.73252 25.7375 7.90065 25.7375H25.1863C26.3675 25.7375 26.945 24.3201 26.1182 23.4932ZM21.8 23.1125H11.3V15.2375C11.3 11.9825 13.2819 9.3313 16.55 9.3313C19.8181 9.3313 21.8 11.9825 21.8 15.2375V23.1125ZM16.55 29.675C17.9938 29.675 19.175 28.4938 19.175 27.05H13.925C13.925 28.4938 15.0931 29.675 16.55 29.675Z" fill="#809FB8"/>
</g>
<defs>
<clipPath id="clip0_20_571">
<rect width="31.5" height="31.5" fill="white" transform="translate(0.800049 0.800049)"/>
</clipPath>
</defs>
</svg>
