<svg width="28" height="28" viewBox="0 0 28 28" fill="none" xmlns="http://www.w3.org/2000/svg">
<path fill-rule="evenodd" clip-rule="evenodd" d="M13.3525 4.97583C13.3016 4.88606 13.2278 4.81139 13.1386 4.75944C13.0495 4.70749 12.9482 4.68011 12.845 4.68011C12.7418 4.68011 12.6404 4.70749 12.5513 4.75944C12.4621 4.81139 12.3883 4.88606 12.3375 4.97583L2.4033 22.4618C2.35292 22.5505 2.32666 22.6508 2.32716 22.7528C2.32765 22.8548 2.35487 22.9549 2.4061 23.043C2.45733 23.1312 2.53078 23.2044 2.61913 23.2554C2.70749 23.3063 2.80765 23.3332 2.90963 23.3333H22.7803C22.8824 23.3334 22.9827 23.3067 23.0712 23.2558C23.1597 23.205 23.2333 23.1318 23.2847 23.0435C23.3361 22.9553 23.3634 22.8552 23.3639 22.7531C23.3645 22.651 23.3382 22.5506 23.2878 22.4618L20.6395 17.801C19.682 17.9095 18.7139 17.7344 17.8551 17.2975C16.9963 16.8605 16.2848 16.181 15.8089 15.3432C15.3329 14.5054 15.1135 13.5462 15.1779 12.5848C15.2423 11.6235 15.5877 10.7022 16.1711 9.93534L13.3525 4.97583ZM11.9583 13.125C11.9583 12.8929 12.0505 12.6704 12.2146 12.5063C12.3787 12.3422 12.6012 12.25 12.8333 12.25C13.0654 12.25 13.2879 12.3422 13.452 12.5063C13.6161 12.6704 13.7083 12.8929 13.7083 13.125V16.0417C13.7083 16.2737 13.6161 16.4963 13.452 16.6604C13.2879 16.8245 13.0654 16.9167 12.8333 16.9167C12.6012 16.9167 12.3787 16.8245 12.2146 16.6604C12.0505 16.4963 11.9583 16.2737 11.9583 16.0417V13.125ZM13.7083 18.0833V19.8333H11.9583V18.0833H13.7083Z" fill="black"/>
<path fill-rule="evenodd" clip-rule="evenodd" d="M16.8163 11.0717C16.4985 11.634 16.3321 12.2691 16.3333 12.915C16.3316 13.5654 16.4994 14.2051 16.8199 14.771C17.1404 15.337 17.6027 15.8098 18.1614 16.1429C18.72 16.476 19.3558 16.658 20.0061 16.6709C20.6563 16.6838 21.2988 16.5273 21.8703 16.2167L24.1511 18.4963L25.6678 16.9797L23.3858 14.6988C23.8668 13.8277 23.982 12.8011 23.7061 11.845C23.4302 10.8889 22.7858 10.0815 21.9146 9.6005C21.0434 9.11951 20.0169 9.00429 19.0607 9.28018C18.1046 9.55608 17.2973 10.2005 16.8163 11.0717ZM21.6929 12.915C21.6929 13.3414 21.5236 13.7503 21.2221 14.0518C20.9206 14.3533 20.5116 14.5227 20.0853 14.5227C19.6589 14.5227 19.25 14.3533 18.9485 14.0518C18.647 13.7503 18.4776 13.3414 18.4776 12.915C18.4776 12.4886 18.647 12.0797 18.9485 11.7782C19.25 11.4767 19.6589 11.3073 20.0853 11.3073C20.5116 11.3073 20.9206 11.4767 21.2221 11.7782C21.5236 12.0797 21.6929 12.4886 21.6929 12.915Z" fill="black"/>
</svg>
