<svg width="24" height="24" viewBox="0 0 24 24" fill="none" xmlns="http://www.w3.org/2000/svg">
<path d="M19.9341 9.22C18.139 9.22 17.4051 7.94 18.2977 6.37C18.8134 5.46 18.506 4.3 17.6035 3.78L15.8878 2.79C15.1043 2.32 14.0927 2.6 13.6266 3.39L13.5175 3.58C12.625 5.15 11.1572 5.15 10.2547 3.58L10.1456 3.39C9.69934 2.6 8.68777 2.32 7.9043 2.79L6.1886 3.78C5.28612 4.3 4.97868 5.47 5.49439 6.38C6.39687 7.94 5.66298 9.22 3.86794 9.22C2.83654 9.22 1.98364 10.07 1.98364 11.12V12.88C1.98364 13.92 2.82662 14.78 3.86794 14.78C5.66298 14.78 6.39687 16.06 5.49439 17.63C4.97868 18.54 5.28612 19.7 6.1886 20.22L7.9043 21.21C8.68777 21.68 9.69935 21.4 10.1655 20.61L10.2746 20.42C11.1671 18.85 12.6349 18.85 13.5374 20.42L13.6465 20.61C14.1126 21.4 15.1241 21.68 15.9076 21.21L17.6233 20.22C18.5258 19.7 18.8332 18.53 18.3175 17.63C17.415 16.06 18.1489 14.78 19.944 14.78C20.9754 14.78 21.8283 13.93 21.8283 12.88V11.12C21.8184 10.08 20.9754 9.22 19.9341 9.22ZM11.901 15.25C10.1258 15.25 8.67786 13.79 8.67786 12C8.67786 10.21 10.1258 8.75 11.901 8.75C13.6762 8.75 15.1241 10.21 15.1241 12C15.1241 13.79 13.6762 15.25 11.901 15.25Z" fill="black"/>
</svg>
