<svg width="26" height="26" viewBox="0 0 26 26" fill="none" xmlns="http://www.w3.org/2000/svg">
<g clip-path="url(#clip0_210_1352)">
<path d="M13.9427 16.3259L11.191 13.6067L11.2235 13.5742C13.1085 11.4726 14.4518 9.05675 15.2427 6.50008H18.4168V4.33341H10.8335V2.16675H8.66683V4.33341H1.0835V6.48925H13.1843C12.4585 8.58008 11.3102 10.5626 9.75016 12.2959C8.74266 11.1801 7.9085 9.95591 7.24766 8.66675H5.081C5.87183 10.4326 6.95516 12.1009 8.30933 13.6067L2.79516 19.0451L4.3335 20.5834L9.75016 15.1667L13.1193 18.5359L13.9427 16.3259ZM20.0418 10.8334H17.8752L13.0002 23.8334H15.1668L16.3802 20.5834H21.526L22.7502 23.8334H24.9168L20.0418 10.8334ZM17.2035 18.4167L18.9585 13.7259L20.7135 18.4167H17.2035Z" fill="white"/>
</g>
<defs>
<clipPath id="clip0_210_1352">
<rect width="26" height="26" fill="white"/>
</clipPath>
</defs>
</svg>
