<svg width="15" height="158" viewBox="0 0 15 158" fill="none" xmlns="http://www.w3.org/2000/svg">
<path fill-rule="evenodd" clip-rule="evenodd" d="M0 11.9677V0H1.4V11H1.70001V15.2514C2.08983 17.0871 2.83101 18.2162 3.75352 18.9304C5.17568 20.0314 7.20759 20.3 9.7 20.3H12.7C13.0866 20.3 13.4 20.6134 13.4 21C13.4 21.3866 13.0866 21.7 12.7 21.7H9.7C7.19241 21.7 4.72433 21.4525 2.89648 20.0374C2.44835 19.6904 2.0487 19.282 1.70001 18.8049V46V47.6404C1.70001 50.7469 2.64114 52.3163 3.99848 53.1726C5.43601 54.0794 7.49808 54.3 10 54.3H13C13.3866 54.3 13.7 54.6134 13.7 55C13.7 55.3866 13.3866 55.7 13 55.7H10C7.50194 55.7 5.064 55.5 3.25153 54.3567C2.64678 53.9752 2.12716 53.5001 1.70001 52.919V77V82.6404C1.70001 85.7469 2.64114 87.3163 3.99848 88.1726C5.43601 89.0794 7.49808 89.3 10 89.3H13C13.3866 89.3 13.7 89.6134 13.7 90C13.7 90.3866 13.3866 90.7 13 90.7H10C7.50194 90.7 5.064 90.5 3.25153 89.3567C2.64678 88.9752 2.12716 88.5001 1.70001 87.919V113.64C1.70001 116.747 2.64114 118.316 3.99848 119.173C5.43601 120.079 7.49808 120.3 10 120.3H13C13.3866 120.3 13.7 120.613 13.7 121C13.7 121.387 13.3866 121.7 13 121.7H10C7.50194 121.7 5.064 121.5 3.25153 120.357C2.64678 119.975 2.12716 119.5 1.7 118.919V149.64C1.7 152.723 2.70679 154.293 4.196 155.16C5.77639 156.08 8.03745 156.3 10.75 156.3H14C14.3866 156.3 14.7 156.613 14.7 157C14.7 157.387 14.3866 157.7 14 157.7H10.75C8.04589 157.7 5.43195 157.499 3.49151 156.37C1.45989 155.187 0.300005 153.077 0.300005 149.64V113L0.300008 82.6404V77V47.6404V46V15.39C0.101896 14.3956 0 13.2602 0 11.9677Z" fill="white"/>
</svg>
